<svg xmlns="http://www.w3.org/2000/svg" xmlns:xlink="http://www.w3.org/1999/xlink" viewBox="0 0 164.3536 108.8904">
  <defs>
    <style>
      .cls-1, .cls-10, .cls-11, .cls-12, .cls-13, .cls-14, .cls-15, .cls-16, .cls-17, .cls-18, .cls-19, .cls-2, .cls-22, .cls-23, .cls-25, .cls-27, .cls-29, .cls-3, .cls-30, .cls-31, .cls-32, .cls-33, .cls-34, .cls-36, .cls-38, .cls-41, .cls-43, .cls-44, .cls-46, .cls-48, .cls-49, .cls-50, .cls-52, .cls-53, .cls-54, .cls-55, .cls-56, .cls-57, .cls-58, .cls-62, .cls-66, .cls-67, .cls-68, .cls-69, .cls-70, .cls-8, .cls-9 {
        fill: none;
      }

      .cls-10, .cls-19, .cls-2, .cls-22, .cls-30 {
        stroke: #999;
      }

      .cls-10, .cls-11, .cls-12, .cls-13, .cls-14, .cls-15, .cls-16, .cls-18, .cls-19, .cls-2, .cls-22, .cls-23, .cls-25, .cls-27, .cls-29, .cls-3, .cls-30, .cls-31, .cls-32, .cls-33, .cls-34, .cls-36, .cls-38, .cls-43, .cls-46, .cls-48, .cls-49, .cls-50, .cls-54, .cls-55, .cls-56, .cls-58, .cls-62, .cls-66, .cls-67, .cls-68, .cls-69, .cls-70, .cls-8, .cls-9 {
        stroke-linecap: round;
      }

      .cls-11, .cls-18, .cls-19, .cls-2, .cls-23, .cls-25, .cls-27, .cls-29, .cls-32, .cls-33, .cls-34, .cls-36, .cls-38, .cls-43, .cls-44, .cls-46, .cls-48, .cls-49, .cls-50, .cls-51, .cls-52, .cls-53, .cls-54, .cls-55, .cls-56, .cls-57, .cls-58, .cls-66, .cls-67, .cls-68, .cls-69, .cls-70, .cls-8, .cls-9 {
        stroke-miterlimit: 10;
      }

      .cls-2, .cls-3, .cls-30, .cls-51, .cls-66 {
        stroke-width: 1.5px;
      }

      .cls-3, .cls-46, .cls-56 {
        stroke: #4d4d4d;
      }

      .cls-10, .cls-12, .cls-13, .cls-14, .cls-15, .cls-16, .cls-17, .cls-22, .cls-3, .cls-30, .cls-31, .cls-41, .cls-62 {
        stroke-linejoin: round;
      }

      .cls-4 {
        fill: #f2f2f2;
      }

      .cls-39, .cls-5 {
        fill: #333;
      }

      .cls-51, .cls-6 {
        fill: #e6e6e6;
      }

      .cls-7 {
        fill: gray;
      }

      .cls-16, .cls-17, .cls-18, .cls-23, .cls-33, .cls-8 {
        stroke: #b3b3b3;
      }

      .cls-16, .cls-17, .cls-22, .cls-31, .cls-33, .cls-8 {
        stroke-width: 2px;
      }

      .cls-9 {
        stroke: url(#linear-gradient);
      }

      .cls-11 {
        stroke: url(#linear-gradient-2);
      }

      .cls-12, .cls-34, .cls-36, .cls-44, .cls-51 {
        stroke: #666;
      }

      .cls-12, .cls-13, .cls-14, .cls-15, .cls-23, .cls-25, .cls-27, .cls-29, .cls-32, .cls-36, .cls-38, .cls-41, .cls-43, .cls-49, .cls-62, .cls-67, .cls-68, .cls-69, .cls-70 {
        stroke-width: 0.75px;
      }

      .cls-13, .cls-14, .cls-15, .cls-50, .cls-67, .cls-70 {
        stroke: gray;
      }

      .cls-14 {
        stroke-dasharray: 0.9927 1.4891;
      }

      .cls-15 {
        stroke-dasharray: 0.9928 1.4892;
      }

      .cls-20 {
        fill: #f73c39;
      }

      .cls-21 {
        fill: url(#linear-gradient-3);
      }

      .cls-24 {
        fill: #c69c6d;
      }

      .cls-25 {
        stroke: #534741;
      }

      .cls-26 {
        fill: #a67c52;
      }

      .cls-27 {
        stroke: #d63030;
      }

      .cls-28 {
        fill: url(#primary_gradient);
      }

      .cls-29, .cls-57, .cls-58 {
        stroke: #f78739;
      }

      .cls-31, .cls-52 {
        stroke: #333;
      }

      .cls-32 {
        stroke: #ff3939;
      }

      .cls-33 {
        opacity: 0.6;
      }

      .cls-34 {
        stroke-width: 6px;
      }

      .cls-35 {
        fill: #4d4d4d;
      }

      .cls-37 {
        fill: url(#primary_gradient-2);
      }

      .cls-38, .cls-43, .cls-55 {
        stroke: #f2f2f2;
      }

      .cls-38 {
        opacity: 0.5;
      }

      .cls-39, .cls-40 {
        opacity: 0.2;
      }

      .cls-41 {
        stroke: #ccc;
      }

      .cls-42 {
        fill: #666;
      }

      .cls-44 {
        stroke-width: 4px;
      }

      .cls-45 {
        clip-path: url(#clip-path);
      }

      .cls-46, .cls-48 {
        stroke-width: 4.25px;
      }

      .cls-47 {
        opacity: 0.7;
      }

      .cls-48, .cls-53, .cls-54, .cls-68, .cls-69 {
        stroke: #f73c39;
      }

      .cls-49 {
        stroke: url(#primary_gradient-3);
      }

      .cls-52, .cls-53, .cls-54, .cls-57, .cls-58 {
        stroke-width: 2.5px;
      }

      .cls-54, .cls-58 {
        opacity: 0.85;
      }

      .cls-59 {
        fill: url(#primary_gradient-4);
      }

      .cls-60 {
        clip-path: url(#clip-path-2);
      }

      .cls-61 {
        fill: url(#primary_gradient-5);
      }

      .cls-62 {
        stroke: #1a1a1a;
      }

      .cls-63 {
        fill: #999;
      }

      .cls-64 {
        opacity: 0.15;
      }

      .cls-65 {
        fill: #b3b3b3;
      }

      .cls-66 {
        stroke: #e6e6e6;
        opacity: 0.8;
      }

      .cls-67, .cls-68 {
        stroke-dasharray: 0.5 1.5;
      }
    </style>
    <linearGradient id="linear-gradient" x1="87.406" y1="28.5019" x2="88.0354" y2="32.0715" gradientUnits="userSpaceOnUse">
      <stop offset="0" stop-color="#f78739"/>
      <stop offset="0.2221" stop-color="#f78339"/>
      <stop offset="0.4591" stop-color="#f77639"/>
      <stop offset="0.7031" stop-color="#f76139"/>
      <stop offset="0.9504" stop-color="#f74339"/>
      <stop offset="1" stop-color="#f73c39"/>
    </linearGradient>
    <linearGradient id="linear-gradient-2" x1="-30.7123" y1="121.6236" x2="-30.0396" y2="117.8086" gradientTransform="translate(122.0293 154.8) rotate(180)" gradientUnits="userSpaceOnUse">
      <stop offset="0" stop-color="#f78739"/>
      <stop offset="0.0238" stop-color="#f78439"/>
      <stop offset="0.2864" stop-color="#f76539"/>
      <stop offset="0.5416" stop-color="#f74e39"/>
      <stop offset="0.784" stop-color="#f74139"/>
      <stop offset="1" stop-color="#f73c39"/>
    </linearGradient>
    <linearGradient id="linear-gradient-3" x1="97.5266" y1="33.372" x2="134.9792" y2="11.0773" gradientUnits="userSpaceOnUse">
      <stop offset="0.2367" stop-color="#f78739"/>
      <stop offset="0.5058" stop-color="#f76539"/>
      <stop offset="0.7843" stop-color="#f74739"/>
      <stop offset="0.9428" stop-color="#f73c39"/>
    </linearGradient>
    <linearGradient id="primary_gradient" data-name="primary gradient" x1="101.2729" y1="3.1681" x2="92.1466" y2="12.2944" xlink:href="#linear-gradient-3"/>
    <linearGradient id="primary_gradient-2" data-name="primary gradient" x1="108.8074" y1="92.6326" x2="146.323" y2="92.6326" xlink:href="#linear-gradient-3"/>
    <clipPath id="clip-path" transform="translate(-0.062)">
      <rect class="cls-1" x="112.3074" y="79.8826" width="30.5156" height="20.5"/>
    </clipPath>
    <linearGradient id="primary_gradient-3" data-name="primary gradient" x1="121.7255" y1="90.1326" x2="133.405" y2="90.1326" xlink:href="#linear-gradient-3"/>
    <linearGradient id="primary_gradient-4" data-name="primary gradient" x1="24.8437" y1="68.5441" x2="51.1709" y2="68.5441" xlink:href="#linear-gradient-3"/>
    <clipPath id="clip-path-2" transform="translate(-0.062)">
      <circle class="cls-1" cx="48.1997" cy="58.3518" r="9.9213"/>
    </clipPath>
    <linearGradient id="primary_gradient-5" data-name="primary gradient" x1="21.5008" y1="68.5442" x2="54.3898" y2="68.5442" xlink:href="#linear-gradient-3"/>
  </defs>
  <g id="Layer_1" data-name="Layer 1">
    <g>
      <polyline class="cls-2" points="110.05 28.118 111.303 28.118 112.556 28.118"/>
      <line class="cls-3" x1="111.3032" y1="28.1183" x2="116.8384" y2="32.6697"/>
      <g>
        <g>
          <g id="CIRCLE">
            <g>
              <circle class="cls-4" cx="96.9376" cy="32.6696" r="13.7075"/>
              <path class="cls-5" d="M97,20.2122A12.4575,12.4575,0,1,1,84.5421,32.67,12.4716,12.4716,0,0,1,97,20.2122m0-2.5A14.9575,14.9575,0,1,0,111.9572,32.67,14.9575,14.9575,0,0,0,97,17.7122Z" transform="translate(-0.062)"/>
            </g>
          </g>
          <g>
            <path class="cls-6" d="M97.0568,32.6842l-12.03,3.2235a12.1457,12.1457,0,0,1,3.2235-12.03Z" transform="translate(-0.062)"/>
            <path class="cls-6" d="M97.0568,32.6842l12.03-3.2235a12.1459,12.1459,0,0,1-3.2235,12.03Z" transform="translate(-0.062)"/>
          </g>
          <g id="CIRCLE-2" data-name="CIRCLE">
            <path class="cls-7" d="M97.0567,20.6842a12,12,0,1,1-12,12,12.0136,12.0136,0,0,1,12-12m0-1a13,13,0,1,0,13,13,13,13,0,0,0-13-13Z" transform="translate(-0.062)"/>
          </g>
          <path class="cls-8" d="M87.3618,31.6826a9.693,9.693,0,0,1,.7178-2.7917" transform="translate(-0.062)"/>
          <path class="cls-9" d="M87.3618,31.6826a9.693,9.693,0,0,1,.7178-2.7917" transform="translate(-0.062)"/>
        </g>
        <g>
          <g id="CIRCLE-3" data-name="CIRCLE">
            <g>
              <circle class="cls-4" cx="143.0372" cy="32.6696" r="13.7075"/>
              <path class="cls-5" d="M143.0992,20.2122A12.4575,12.4575,0,1,1,130.6417,32.67a12.4716,12.4716,0,0,1,12.4575-12.4575m0-2.5A14.9575,14.9575,0,1,0,158.0567,32.67a14.9575,14.9575,0,0,0-14.9575-14.9575Z" transform="translate(-0.062)"/>
            </g>
          </g>
          <g>
            <path class="cls-6" d="M143.0567,32.6842l-12.03,3.2235a12.1457,12.1457,0,0,1,3.2235-12.03Z" transform="translate(-0.062)"/>
            <path class="cls-6" d="M143.0567,32.6842l12.03-3.2235a12.1459,12.1459,0,0,1-3.2235,12.03Z" transform="translate(-0.062)"/>
          </g>
          <g id="CIRCLE-4" data-name="CIRCLE">
            <path class="cls-7" d="M143.0567,20.6842a12,12,0,1,1-12,12,12.0136,12.0136,0,0,1,12-12m0-1a13,13,0,1,0,13,13,13,13,0,0,0-13-13Z" transform="translate(-0.062)"/>
          </g>
          <circle class="cls-10" cx="142.9947" cy="32.6842" r="2"/>
          <path class="cls-8" d="M152.7517,33.6859a9.6768,9.6768,0,0,1-.3837,1.8784q-.1444.466-.3341.9133" transform="translate(-0.062)"/>
          <path class="cls-11" d="M152.7517,33.6859a9.6768,9.6768,0,0,1-.3837,1.8784q-.1444.466-.3341.9133" transform="translate(-0.062)"/>
        </g>
      </g>
      <g>
        <line class="cls-12" x1="96.9947" y1="34.6842" x2="116.8384" y2="35.5385"/>
        <line class="cls-12" x1="116.8384" y1="29.8009" x2="96.9947" y2="30.6842"/>
        <g>
          <line class="cls-13" x1="96.9947" y1="34.6842" x2="97.4943" y2="34.7057"/>
          <line class="cls-14" x1="98.982" y1="34.7698" x2="115.595" y2="35.4849"/>
          <line class="cls-13" x1="116.3389" y1="35.517" x2="116.8384" y2="35.5385"/>
        </g>
        <g>
          <line class="cls-13" x1="116.8384" y1="29.8009" x2="116.3389" y2="29.8232"/>
          <line class="cls-15" x1="114.8512" y1="29.8894" x2="98.2381" y2="30.6289"/>
          <line class="cls-13" x1="97.4942" y1="30.662" x2="96.9947" y2="30.6842"/>
        </g>
        <circle class="cls-10" cx="96.9947" cy="32.6842" r="2"/>
      </g>
      <g>
        <g id="LINE">
          <line class="cls-16" x1="108.9283" y1="14.7058" x2="107.3048" y2="11.0188"/>
        </g>
        <line class="cls-16" x1="133.3495" y1="6.926" x2="132.1654" y2="3.7793"/>
        <line class="cls-17" x1="138.4571" y1="20.4988" x2="136.4139" y2="15.0692"/>
      </g>
      <g>
        <line class="cls-18" x1="96.9947" y1="32.6842" x2="91.2368" y2="15.7474"/>
        <line class="cls-18" x1="96.9947" y1="32.6842" x2="102.6384" y2="15.7474"/>
        <line class="cls-19" x1="91.2368" y1="15.7474" x2="102.6384" y2="15.7474"/>
        <line class="cls-19" x1="102.6384" y1="15.7474" x2="107.603" y2="18.8729"/>
        <line class="cls-19" x1="91.2368" y1="15.7474" x2="88.1421" y2="15.7474"/>
      </g>
      <g>
        <path class="cls-20" d="M144.0343,32.3175l-4.58-12.1709a1,1,0,1,0-1.8711.7041l4.58,12.1709a1,1,0,1,0,1.8711-.7041Z" transform="translate(-0.062)"/>
        <path class="cls-21" d="M137.7638,15.6525,133.9952,5.6378l-1.872.7046.6885,1.83a.4316.4316,0,0,1-.1491.5L113.999,22.3311a.42.42,0,0,1-.6332-.17l-3.46-7.8584-1.83.8056.3476.7894a.4219.4219,0,0,1-.0523.428L96.2086,32.0577A1,1,0,0,0,97,33.67h19.9009a.9937.9937,0,0,0,.3956-.0828c.0226-.01.04-.03.0616-.0416a.99.99,0,0,0,.2677-.1947c.0062-.0066.0151-.0086.0212-.0154L134.5,14.426a.4249.4249,0,0,1,.7149.1331l.6766,1.798ZM109.7316,18.87l5.3745,12.2055a.4236.4236,0,0,1-.3876.5942H99.0367l9.9642-12.889A.4282.4282,0,0,1,109.7316,18.87Zm7.1871,11.36L114.54,24.8289a.4268.4268,0,0,1,.1386-.5164l18.5227-13.5554a.43.43,0,0,1,.6563.1956l.2243.5959a.4237.4237,0,0,1-.08.4312L117.6348,30.3431A.4309.4309,0,0,1,116.9187,30.23Z" transform="translate(-0.062)"/>
      </g>
      <g>
        <circle class="cls-22" cx="116.8384" cy="32.6697" r="2.8688"/>
        <g>
          <path class="cls-4" d="M116.9005,33.5158a.846.846,0,1,1,.8462-.8462A.8469.8469,0,0,1,116.9005,33.5158Z" transform="translate(-0.062)"/>
          <path class="cls-5" d="M116.9,30.5737a2.096,2.096,0,1,0,2.0961,2.096,2.096,2.096,0,0,0-2.0961-2.096Z" transform="translate(-0.062)"/>
        </g>
        <line class="cls-3" x1="116.8384" y1="32.6697" x2="122.3737" y2="37.2211"/>
        <polyline class="cls-2" points="121.121 37.221 122.374 37.221 123.627 37.221"/>
      </g>
      <g>
        <line class="cls-23" x1="102.0156" y1="9.349" x2="102.9762" y2="10.5746"/>
        <line class="cls-23" x1="107.0935" y1="10.7314" x2="102.9762" y2="10.5746"/>
        <path class="cls-5" d="M105.9939,8.1108c-1.851,0-2.3917-.1837-3.3488-.1634-.7876-.0125-1.9066.7926-1.3548,1.7419,2.6563.0486,4.6166.8782,5.1462,1.6945L111.7611,9.04a.4233.4233,0,0,0,.2584-.3676c.0158-.5565-.4183-1.1029-1.35-1.0635A43.7179,43.7179,0,0,1,105.9939,8.1108Z" transform="translate(-0.062)"/>
      </g>
      <g>
        <rect class="cls-24" x="87.5623" y="3.228" width="11.1047" height="11.1047" rx="0.8641"/>
        <line class="cls-25" x1="96.4821" y1="6.1333" x2="96.4821" y2="4.3017"/>
        <line class="cls-25" x1="88.7873" y1="4.428" x2="90.7603" y2="4.428"/>
        <line class="cls-25" x1="88.7873" y1="5.428" x2="90.7603" y2="5.428"/>
        <line class="cls-25" x1="97.2912" y1="4.943" x2="96.4821" y2="4.3017"/>
        <line class="cls-25" x1="95.6729" y1="4.943" x2="96.4821" y2="4.3017"/>
        <polygon class="cls-26" points="94.281 5.218 93.682 4.904 93.115 5.218 92.451 4.862 91.948 5.218 91.948 3.228 94.281 3.228 94.281 5.218"/>
        <polygon class="cls-26" points="94.281 12.343 93.682 12.657 93.115 12.343 92.451 12.698 91.948 12.343 91.948 14.333 94.281 14.333 94.281 12.343"/>
      </g>
      <g>
        <g>
          <g>
            <line class="cls-27" x1="86.0278" y1="12.3306" x2="88.3065" y2="14.6093"/>
            <line class="cls-27" x1="86.0278" y1="9.3306" x2="91.3065" y2="14.6093"/>
            <line class="cls-27" x1="88.9158" y1="9.2186" x2="94.3065" y2="14.6093"/>
            <line class="cls-27" x1="91.9158" y1="9.2186" x2="97.3065" y2="14.6093"/>
            <line class="cls-27" x1="94.9158" y1="9.2186" x2="100.0278" y2="14.3306"/>
            <line class="cls-27" x1="97.9158" y1="9.2186" x2="100.0278" y2="11.3306"/>
          </g>
          <path class="cls-28" d="M100.2047,7.2241h-14a.5.5,0,0,0-.5.5v7.0244a.5.5,0,0,0,.5.5h14a.5.5,0,0,0,.5-.5V7.7241A.5.5,0,0,0,100.2047,7.2241Zm-4.289,7.0244,3.789-3.7886v1.94l-1.85,1.8491Zm-3,0,4.6552-4.6548h1.94l-4.6553,4.6548Zm-3,0,4.6552-4.6548H96.51l-4.6552,4.6548Zm-3,0,4.6548-4.6548H93.51l-4.6552,4.6548ZM86.7047,11.46l1.8662-1.8663h1.94l-3.8057,3.8057Zm0-1.8663H87.51l-.8057.8057Zm13,3.8661v.7887h-.7889Z" transform="translate(-0.062)"/>
          <line class="cls-27" x1="87.0157" y1="8.4309" x2="99.2646" y2="8.4309"/>
        </g>
        <line class="cls-29" x1="92.6026" y1="16.2625" x2="87.7474" y2="7.2309"/>
        <line class="cls-29" x1="98.4289" y1="7.2072" x2="98.4289" y2="16.2625"/>
      </g>
      <line class="cls-16" x1="132.1654" y1="3.7793" x2="134.8158" y2="2.8316"/>
      <line class="cls-30" x1="134.8158" y1="2.8316" x2="133.0145" y2="1.0303"/>
      <line class="cls-31" x1="133.0145" y1="1.0303" x2="130.2368" y2="1"/>
    </g>
  </g>
  <g id="Layer_2" data-name="Layer 2">
    <g>
      <path class="cls-32" d="M100.0951,62.6978h10.63a4.8319,4.8319,0,0,1,4.8347,4.8347v9.3956" transform="translate(-0.062)"/>
      <path class="cls-33" d="M100.0951,62.6978h10.63a4.8319,4.8319,0,0,1,4.8347,4.8347v9.3956" transform="translate(-0.062)"/>
    </g>
    <g>
      <path class="cls-29" d="M155.03,62.6978H144.4a4.8319,4.8319,0,0,0-4.8347,4.8347v9.3956" transform="translate(-0.062)"/>
      <path class="cls-33" d="M155.03,62.6978H144.4a4.8319,4.8319,0,0,0-4.8347,4.8347v9.3956" transform="translate(-0.062)"/>
    </g>
    <line class="cls-34" x1="99.8654" y1="70.9035" x2="110.8884" y2="81.9265"/>
    <line class="cls-34" x1="155.141" y1="70.9035" x2="144.118" y2="81.9265"/>
    <circle class="cls-5" cx="155.141" cy="70.9035" r="1.4173"/>
    <circle class="cls-5" cx="99.8654" cy="70.9035" r="1.4173"/>
    <g>
      <rect class="cls-5" x="127.5032" y="79.8826" width="15.2578" height="20.5"/>
      <rect class="cls-35" x="112.2454" y="79.8826" width="15.2522" height="20.5"/>
    </g>
    <path class="cls-5" d="M130.7838,79.1884h-6.4371V74.9349a.85.85,0,0,1,.85-.85h4.7364a.85.85,0,0,1,.85.85Z" transform="translate(-0.062)"/>
    <path class="cls-35" d="M127.5652,79.1884h-3.2185V74.9349a.85.85,0,0,1,.85-.85h2.3682Z" transform="translate(-0.062)"/>
    <line class="cls-36" x1="125.6085" y1="75.2515" x2="129.3979" y2="75.2515"/>
    <path class="cls-37" d="M141.3624,76.3748H113.768a4.9606,4.9606,0,0,0-4.9606,4.9606v24.72a2.8346,2.8346,0,0,0,2.8347,2.8346h31.8463a2.8346,2.8346,0,0,0,2.8346-2.8346v-24.72A4.9606,4.9606,0,0,0,141.3624,76.3748Zm-29.055,22.5827v-17.65a1.4251,1.4251,0,0,1,1.4251-1.4251h27.6654a1.4251,1.4251,0,0,1,1.4251,1.4251v17.65a1.4251,1.4251,0,0,1-1.4251,1.4251H113.7325A1.4252,1.4252,0,0,1,112.3074,98.9575Z" transform="translate(-0.062)"/>
    <path class="cls-38" d="M110.2793,80.4708a3.5546,3.5546,0,0,1,2.7323-2.6422" transform="translate(-0.062)"/>
    <g>
      <rect class="cls-39" x="119.1423" y="101.7478" width="16.7218" height="5.6846" rx="0.807"/>
      <g>
        <rect class="cls-5" x="119.1423" y="101.7481" width="9.7055" height="5.6842" rx="0.8504"/>
        <g class="cls-40">
          <line class="cls-41" x1="128.4701" y1="103.1214" x2="124.6032" y2="107.0969"/>
        </g>
        <path class="cls-42" d="M128.0594,102.4981a.1005.1005,0,0,1,.1.1v3.9834a.1006.1006,0,0,1-.1.1h-8.0047a.1005.1005,0,0,1-.1-.1v-3.9834a.1.1,0,0,1,.1-.1h8.0047m0-.75h-8.0047a.85.85,0,0,0-.85.85v3.9834a.85.85,0,0,0,.85.85h8.0047a.85.85,0,0,0,.85-.85v-3.9834a.85.85,0,0,0-.85-.85Z" transform="translate(-0.062)"/>
      </g>
      <g>
        <circle class="cls-5" cx="132.2683" cy="104.59" r="1.751"/>
        <path class="cls-42" d="M132.3305,103.2142a1.376,1.376,0,1,1-1.376,1.376,1.3775,1.3775,0,0,1,1.376-1.376m0-.75a2.126,2.126,0,1,0,2.126,2.126,2.126,2.126,0,0,0-2.126-2.126Z" transform="translate(-0.062)"/>
      </g>
      <g>
        <line class="cls-43" x1="123.995" y1="105.5059" x2="123.995" y2="103.6744"/>
        <line class="cls-43" x1="124.8042" y1="104.3156" x2="123.995" y2="103.6744"/>
        <line class="cls-43" x1="123.1858" y1="104.3156" x2="123.995" y2="103.6744"/>
      </g>
    </g>
    <line class="cls-44" x1="127.5032" y1="79.8826" x2="127.5032" y2="100.3826"/>
    <g class="cls-45">
      <g>
        <g>
          <g>
            <line class="cls-46" x1="123.9807" y1="93.655" x2="131.0257" y2="86.6101"/>
            <line class="cls-46" x1="131.0257" y1="93.655" x2="123.9807" y2="86.6101"/>
          </g>
          <g class="cls-47">
            <line class="cls-48" x1="123.9807" y1="93.655" x2="131.0257" y2="86.6101"/>
            <line class="cls-48" x1="131.0257" y1="93.655" x2="123.9807" y2="86.6101"/>
          </g>
          <path class="cls-49" d="M124.7371,90.1326h5.6562m-6.6562,1h7.6562m-8.6562,1h9.6562m-10.2813,1h10.9064m-4.2813,1H133.03m-10.93,0h4.2928m3.347,1h2.6948m-9.74,0H125.39m-1.6531-6h7.6562m-8.6562-1h9.6562m-10.2813-1h10.9064m-4.2813-1H133.03m-10.93,0h4.2928m3.3467-1h2.6952m-9.74,0H125.39" transform="translate(-0.062)"/>
        </g>
        <g>
          <line class="cls-50" x1="121.0821" y1="97.6259" x2="133.9242" y2="97.6259"/>
          <line class="cls-8" x1="117.8295" y1="96.5617" x2="137.1769" y2="96.5617"/>
        </g>
      </g>
    </g>
    <g class="cls-40">
      <path class="cls-51" d="M132.3305,79.8826H113.7247A1.4173,1.4173,0,0,0,112.3074,81.3V98.9653a1.4174,1.4174,0,0,0,1.4173,1.4173h27.681a1.4173,1.4173,0,0,0,1.4173-1.4173V81.3a1.4172,1.4172,0,0,0-1.4173-1.4173Z" transform="translate(-0.062)"/>
      <path class="cls-51" d="M132.3305,79.8826H113.7247A1.4173,1.4173,0,0,0,112.3074,81.3V98.9653a1.4174,1.4174,0,0,0,1.4173,1.4173h27.681a1.4173,1.4173,0,0,0,1.4173-1.4173V81.3a1.4172,1.4172,0,0,0-1.4173-1.4173Z" transform="translate(-0.062)"/>
      <polygon class="cls-42" points="127.646 99.883 130.464 99.883 142.261 87.996 142.261 85.158 127.646 99.883"/>
    </g>
    <g>
      <path class="cls-35" d="M164.2862,69.3408A9.2167,9.2167,0,1,0,153.64,79.9867,9.2195,9.2195,0,0,0,164.2862,69.3408Zm-9.0832,4.2557a2.693,2.693,0,1,1,2.6929-2.693A2.693,2.693,0,0,1,155.203,73.5965Z" transform="translate(-0.062)"/>
      <path class="cls-5" d="M155.203,65.9429a4.9607,4.9607,0,1,0,4.9606,4.9606A4.9606,4.9606,0,0,0,155.203,65.9429Zm0,7.6536a2.693,2.693,0,1,1,2.6929-2.693A2.693,2.693,0,0,1,155.203,73.5965Z" transform="translate(-0.062)"/>
      <circle class="cls-52" cx="155.141" cy="70.9035" r="7.0866"/>
      <path class="cls-53" d="M155.203,77.99a7.0867,7.0867,0,0,1,0-14.1733" transform="translate(-0.062)"/>
      <path class="cls-54" d="M155.203,63.8169a7.0867,7.0867,0,0,1,0,14.1733" transform="translate(-0.062)"/>
      <path class="cls-55" d="M151.6591,64.7653a7.0955,7.0955,0,0,1,7.0878,0" transform="translate(-0.062)"/>
      <path class="cls-55" d="M151.6591,77.0417a7.0948,7.0948,0,0,0,7.0878,0" transform="translate(-0.062)"/>
      <line class="cls-56" x1="155.141" y1="67.7002" x2="155.141" y2="65.9429"/>
      <line class="cls-56" x1="155.141" y1="74.1068" x2="155.141" y2="75.8642"/>
      <line class="cls-56" x1="152.3668" y1="72.5052" x2="150.8444" y2="73.3841"/>
      <line class="cls-56" x1="157.9151" y1="69.3019" x2="159.4376" y2="68.4229"/>
      <line class="cls-56" x1="157.9151" y1="72.5052" x2="159.4375" y2="73.3841"/>
      <line class="cls-56" x1="152.3668" y1="69.3019" x2="150.8443" y2="68.4228"/>
    </g>
    <g>
      <path class="cls-35" d="M109.0106,69.3408A9.2167,9.2167,0,1,0,98.3647,79.9867,9.2195,9.2195,0,0,0,109.0106,69.3408Zm-9.0832,4.2557a2.693,2.693,0,1,1,2.6929-2.693A2.6929,2.6929,0,0,1,99.9274,73.5965Z" transform="translate(-0.062)"/>
      <path class="cls-5" d="M99.9274,65.9429a4.9607,4.9607,0,1,0,4.9607,4.9606A4.9606,4.9606,0,0,0,99.9274,65.9429Zm0,7.6536a2.693,2.693,0,1,1,2.6929-2.693A2.6929,2.6929,0,0,1,99.9274,73.5965Z" transform="translate(-0.062)"/>
      <circle class="cls-52" cx="99.8654" cy="70.9035" r="7.0866"/>
      <path class="cls-57" d="M99.9274,77.99a7.0867,7.0867,0,0,1,0-14.1733" transform="translate(-0.062)"/>
      <path class="cls-58" d="M99.9274,63.8169a7.0867,7.0867,0,0,1,0,14.1733" transform="translate(-0.062)"/>
      <path class="cls-55" d="M96.3835,64.7653a7.0955,7.0955,0,0,1,7.0878,0" transform="translate(-0.062)"/>
      <path class="cls-55" d="M96.3835,77.0417a7.0948,7.0948,0,0,0,7.0878,0" transform="translate(-0.062)"/>
      <line class="cls-56" x1="99.8654" y1="67.7002" x2="99.8654" y2="65.9429"/>
      <line class="cls-56" x1="99.8654" y1="74.1068" x2="99.8654" y2="75.8642"/>
      <line class="cls-56" x1="97.0912" y1="72.5052" x2="95.5688" y2="73.3841"/>
      <line class="cls-56" x1="102.6395" y1="69.3019" x2="104.162" y2="68.4229"/>
      <line class="cls-56" x1="102.6395" y1="72.5052" x2="104.1619" y2="73.3841"/>
      <line class="cls-56" x1="97.0912" y1="69.3019" x2="95.5687" y2="68.4228"/>
    </g>
  </g>
  <g id="Layer_4" data-name="Layer 4">
    <g>
      <path class="cls-59" d="M46.6709,81.7076A4.4728,4.4728,0,0,1,43.4888,80.39l-5.128-5.128a.5.5,0,0,0-.707,0L32.5259,80.39a4.5,4.5,0,0,1-6.3643-6.3643L31.29,68.8976a.5.5,0,0,0,0-.7071l-5.1279-5.1279a4.5,4.5,0,0,1,6.3643-6.3642l5.1279,5.1279a.5.5,0,0,0,.707,0l5.128-5.1279a4.5,4.5,0,0,1,6.3642,6.3642l-5.1279,5.1279a.5.5,0,0,0,0,.7071l5.1279,5.1279a4.5,4.5,0,0,1-3.1821,7.6821Z" transform="translate(-0.062)"/>
      <path class="cls-5" d="M46.6709,55.8807a4,4,0,0,1,2.8285,6.8283l-5.1279,5.128a1,1,0,0,0,0,1.4142l5.1279,5.1279a4,4,0,0,1-5.657,5.6571l-5.128-5.128a1,1,0,0,0-1.4142,0L32.1725,80.036a4,4,0,1,1-5.6573-5.6569l5.1279-5.1279a1,1,0,0,0,0-1.4142l-5.1279-5.128a4,4,0,0,1,5.6571-5.657L37.3,62.18a1,1,0,0,0,1.4142,0l5.1278-5.1278a3.9751,3.9751,0,0,1,2.8287-1.1714m0-1a4.9859,4.9859,0,0,0-3.5356,1.4641l-5.128,5.128-5.1279-5.128a5,5,0,1,0-7.0713,7.0713l5.1279,5.128L25.8081,73.672a5,5,0,0,0,7.0713,7.0713l5.1279-5.1279,5.128,5.1279a5,5,0,1,0,7.0712-7.0713l-5.1279-5.1279,5.1279-5.128a5,5,0,0,0-3.5356-8.5354Z" transform="translate(-0.062)"/>
    </g>
    <g class="cls-60">
      <polygon class="cls-61" points="53.969 76.58 52.577 74.452 49.66 71.535 46.696 68.571 49.445 65.821 52.577 62.689 54.117 60.134 54.379 57.95 53.706 55.483 51.373 52.999 48.643 52.142 45.633 52.683 43.827 53.939 41.252 56.514 37.945 59.82 35.058 56.933 32.064 53.939 30.459 52.779 27.508 52.129 25.104 52.69 22.239 55.38 21.585 57.292 21.6 59.418 22.156 61.088 23.599 62.975 26.553 65.929 29.195 68.571 26.361 71.405 23.313 74.452 21.954 76.499 21.501 78.826 22.051 81.381 24.098 83.868 26.18 84.829 28.712 84.93 30.87 84.136 32.52 82.746 35.625 79.641 37.945 77.321 40.61 79.985 43.827 83.203 45.325 84.307 47.374 84.96 49.384 84.902 51.608 83.994 53.851 81.356 54.39 78.848 53.969 76.58"/>
      <g>
        <line class="cls-62" x1="30.8706" y1="84.1354" x2="30.6265" y2="74.1129"/>
        <line class="cls-62" x1="49.6601" y1="71.5343" x2="52.5776" y2="74.4518"/>
        <line class="cls-62" x1="53.9692" y1="76.5792" x2="54.3901" y2="78.8478"/>
        <line class="cls-62" x1="48.7539" y1="80.1031" x2="47.8496" y2="76.9742"/>
        <line class="cls-62" x1="43.353" y1="74.8224" x2="47.8496" y2="76.9742"/>
        <line class="cls-62" x1="22.1558" y1="61.0885" x2="23.5981" y2="62.9752"/>
        <line class="cls-62" x1="21.5996" y1="59.4191" x2="22.1558" y2="61.0885"/>
        <line class="cls-62" x1="48.644" y1="52.1412" x2="51.3721" y2="52.9982"/>
        <line class="cls-62" x1="49.6601" y1="71.5343" x2="46.6963" y2="68.5699"/>
        <line class="cls-62" x1="49.6601" y1="71.5343" x2="47.8491" y2="76.9747"/>
        <line class="cls-62" x1="46.6963" y1="68.5699" x2="47.8491" y2="76.9747"/>
        <line class="cls-62" x1="24.0976" y1="83.8683" x2="22.0513" y2="81.3815"/>
        <line class="cls-62" x1="27.4463" y1="80.1036" x2="22.0513" y2="81.3815"/>
        <line class="cls-62" x1="27.4463" y1="80.1036" x2="24.0976" y2="83.8683"/>
        <line class="cls-62" x1="26.1802" y1="84.8287" x2="24.0976" y2="83.8683"/>
        <line class="cls-62" x1="28.7119" y1="84.9308" x2="26.1802" y2="84.8287"/>
        <line class="cls-62" x1="27.4463" y1="80.1036" x2="28.7119" y2="84.9308"/>
        <line class="cls-62" x1="26.1802" y1="84.8287" x2="27.4463" y2="80.1036"/>
        <line class="cls-62" x1="32.521" y1="82.7462" x2="30.6269" y2="74.1134"/>
        <line class="cls-62" x1="35.6245" y1="79.6412" x2="32.521" y2="82.7462"/>
        <line class="cls-62" x1="23.5981" y1="62.9752" x2="30.7959" y2="59.985"/>
        <line class="cls-62" x1="26.5532" y1="65.9288" x2="23.5981" y2="62.9752"/>
        <line class="cls-62" x1="27.4463" y1="80.1036" x2="26.3608" y2="71.4054"/>
        <line class="cls-62" x1="23.313" y1="74.4527" x2="26.3608" y2="71.4054"/>
        <line class="cls-62" x1="21.9546" y1="76.5001" x2="23.313" y2="74.4527"/>
        <line class="cls-62" x1="27.4463" y1="80.1036" x2="23.313" y2="74.4527"/>
        <line class="cls-62" x1="21.5005" y1="78.8263" x2="27.4463" y2="80.1036"/>
        <line class="cls-62" x1="21.9546" y1="76.5001" x2="21.5005" y2="78.8263"/>
        <line class="cls-62" x1="27.4463" y1="80.1036" x2="21.9546" y2="76.5001"/>
        <line class="cls-62" x1="30.6269" y1="74.1134" x2="27.4463" y2="80.1036"/>
        <line class="cls-62" x1="30.8706" y1="84.1354" x2="27.4463" y2="80.1036"/>
        <line class="cls-62" x1="36.9302" y1="70.9044" x2="26.3613" y2="71.4044"/>
        <line class="cls-62" x1="29.1953" y1="68.5704" x2="26.3613" y2="71.4044"/>
        <line class="cls-62" x1="36.9297" y1="70.9039" x2="30.6265" y2="74.1129"/>
        <line class="cls-62" x1="35.6245" y1="79.6427" x2="30.6265" y2="74.1129"/>
        <line class="cls-62" x1="43.8262" y1="53.9381" x2="45.6333" y2="52.6832"/>
        <line class="cls-62" x1="47.2725" y1="56.0563" x2="43.8262" y2="53.9381"/>
        <line class="cls-62" x1="54.3794" y1="57.9498" x2="54.1177" y2="60.1329"/>
        <line class="cls-62" x1="45.8384" y1="61.4122" x2="54.3794" y2="57.9498"/>
        <line class="cls-62" x1="47.2725" y1="56.0563" x2="54.3794" y2="57.9498"/>
        <line class="cls-62" x1="53.707" y1="55.484" x2="54.3794" y2="57.9498"/>
        <line class="cls-62" x1="54.1177" y1="60.1329" x2="52.5771" y2="62.6886"/>
        <line class="cls-62" x1="45.8384" y1="61.4122" x2="54.1177" y2="60.1329"/>
        <line class="cls-62" x1="51.3721" y1="52.9982" x2="53.707" y2="55.484"/>
        <line class="cls-62" x1="47.2725" y1="56.0563" x2="51.3721" y2="52.9982"/>
        <line class="cls-62" x1="53.707" y1="55.484" x2="47.2725" y2="56.0563"/>
        <line class="cls-62" x1="45.6333" y1="52.6832" x2="47.2725" y2="56.0563"/>
        <line class="cls-62" x1="48.644" y1="52.1412" x2="47.2725" y2="56.0563"/>
        <line class="cls-62" x1="45.6333" y1="52.6832" x2="48.644" y2="52.1412"/>
        <line class="cls-62" x1="52.5771" y1="62.6886" x2="49.4453" y2="65.8204"/>
        <line class="cls-62" x1="45.8384" y1="61.4122" x2="49.4453" y2="65.8204"/>
        <line class="cls-62" x1="52.5771" y1="62.6886" x2="45.8384" y2="61.4122"/>
        <line class="cls-62" x1="40.7842" y1="65.2193" x2="49.4453" y2="65.8204"/>
        <line class="cls-62" x1="46.6963" y1="68.5699" x2="49.4453" y2="65.8204"/>
        <line class="cls-62" x1="37.9448" y1="59.8199" x2="41.2515" y2="56.5143"/>
        <line class="cls-62" x1="40.7842" y1="65.2193" x2="37.9448" y2="59.8199"/>
        <line class="cls-62" x1="41.2515" y1="56.5143" x2="40.7842" y2="65.2193"/>
        <line class="cls-62" x1="47.8491" y1="76.9747" x2="43.8271" y2="83.2027"/>
        <line class="cls-62" x1="45.3247" y1="84.3077" x2="43.8271" y2="83.2027"/>
        <line class="cls-62" x1="47.8491" y1="76.9747" x2="45.3247" y2="84.3077"/>
        <line class="cls-62" x1="54.3901" y1="78.8478" x2="48.7539" y2="80.1031"/>
        <line class="cls-62" x1="53.8511" y1="81.3556" x2="54.3901" y2="78.8478"/>
        <line class="cls-62" x1="53.8511" y1="81.3556" x2="48.7539" y2="80.1031"/>
        <line class="cls-62" x1="51.6084" y1="83.9943" x2="53.8511" y2="81.3556"/>
        <line class="cls-62" x1="48.7539" y1="80.1031" x2="51.6084" y2="83.9943"/>
        <line class="cls-62" x1="49.3843" y1="84.9015" x2="51.6084" y2="83.9943"/>
        <line class="cls-62" x1="48.7539" y1="80.1031" x2="49.3843" y2="84.9015"/>
        <line class="cls-62" x1="47.374" y1="84.9601" x2="49.3843" y2="84.9015"/>
        <line class="cls-62" x1="52.5776" y1="74.4518" x2="47.8496" y2="76.9742"/>
        <line class="cls-62" x1="53.9692" y1="76.5792" x2="47.8496" y2="76.9742"/>
        <line class="cls-62" x1="52.5776" y1="74.4518" x2="53.9692" y2="76.5792"/>
        <line class="cls-62" x1="48.7539" y1="80.1031" x2="45.3247" y2="84.3077"/>
        <line class="cls-62" x1="47.374" y1="84.9601" x2="45.3247" y2="84.3077"/>
        <line class="cls-62" x1="48.7539" y1="80.1031" x2="47.374" y2="84.9601"/>
        <line class="cls-62" x1="32.0644" y1="53.9381" x2="30.7959" y2="59.985"/>
        <line class="cls-62" x1="35.0581" y1="56.9322" x2="32.0644" y2="53.9381"/>
        <line class="cls-62" x1="35.0581" y1="56.9322" x2="30.7959" y2="59.985"/>
        <line class="cls-62" x1="37.9448" y1="59.8199" x2="30.7959" y2="59.985"/>
        <line class="cls-62" x1="35.0581" y1="56.9322" x2="37.9448" y2="59.8199"/>
        <line class="cls-62" x1="30.7959" y1="59.985" x2="33.4531" y2="64.3111"/>
        <line class="cls-62" x1="37.9458" y1="59.8204" x2="33.4531" y2="64.3111"/>
        <line class="cls-62" x1="30.7959" y1="59.985" x2="26.5532" y2="65.9288"/>
        <line class="cls-62" x1="29.1943" y1="68.5699" x2="26.5532" y2="65.9288"/>
        <line class="cls-62" x1="30.7959" y1="59.985" x2="29.1943" y2="68.5699"/>
        <line class="cls-62" x1="24.8374" y1="58.6363" x2="22.1558" y2="61.0885"/>
        <line class="cls-62" x1="30.7959" y1="59.985" x2="22.1558" y2="61.0885"/>
        <line class="cls-62" x1="24.8374" y1="58.6363" x2="30.7959" y2="59.985"/>
        <line class="cls-62" x1="21.5859" y1="57.2921" x2="21.5996" y2="59.4191"/>
        <line class="cls-62" x1="24.8374" y1="58.6363" x2="21.5996" y2="59.4191"/>
        <line class="cls-62" x1="25.1045" y1="52.6901" x2="27.5078" y2="52.1285"/>
        <line class="cls-62" x1="24.8374" y1="58.6363" x2="27.5078" y2="52.1285"/>
        <line class="cls-62" x1="43.353" y1="74.8224" x2="43.8271" y2="83.2027"/>
        <line class="cls-62" x1="40.6099" y1="79.9855" x2="43.8271" y2="83.2027"/>
        <line class="cls-62" x1="37.9448" y1="77.3214" x2="46.6963" y2="68.5699"/>
        <line class="cls-62" x1="43.353" y1="74.8224" x2="46.6963" y2="68.5699"/>
        <line class="cls-62" x1="35.6245" y1="79.6412" x2="37.9448" y2="77.3214"/>
        <line class="cls-62" x1="36.9302" y1="70.9044" x2="35.6245" y2="79.6412"/>
        <line class="cls-62" x1="37.9448" y1="77.3214" x2="36.9302" y2="70.9044"/>
        <line class="cls-62" x1="40.7842" y1="65.2203" x2="36.9302" y2="70.9044"/>
        <line class="cls-62" x1="46.6963" y1="68.5699" x2="36.9302" y2="70.9044"/>
        <line class="cls-62" x1="40.7842" y1="65.2203" x2="46.6963" y2="68.5699"/>
        <line class="cls-62" x1="33.4531" y1="64.3111" x2="36.9302" y2="70.9044"/>
        <line class="cls-62" x1="29.1953" y1="68.5709" x2="36.9302" y2="70.9044"/>
        <line class="cls-62" x1="22.2383" y1="55.3805" x2="21.5859" y2="57.2921"/>
        <line class="cls-62" x1="24.8374" y1="58.6363" x2="21.5859" y2="57.2921"/>
        <line class="cls-62" x1="22.2383" y1="55.3805" x2="24.8374" y2="58.6363"/>
        <line class="cls-62" x1="25.1045" y1="52.6901" x2="22.2383" y2="55.3805"/>
        <line class="cls-62" x1="24.8374" y1="58.6363" x2="25.1045" y2="52.6901"/>
        <line class="cls-62" x1="27.5078" y1="52.1285" x2="30.4585" y2="52.7799"/>
        <line class="cls-62" x1="30.7959" y1="59.985" x2="27.5078" y2="52.1285"/>
        <line class="cls-62" x1="37.9448" y1="77.3214" x2="43.353" y2="74.8224"/>
        <line class="cls-62" x1="40.6099" y1="79.9855" x2="37.9448" y2="77.3214"/>
        <line class="cls-62" x1="43.353" y1="74.8224" x2="40.6099" y2="79.9855"/>
        <line class="cls-62" x1="47.2725" y1="56.0563" x2="41.2515" y2="56.5133"/>
        <line class="cls-62" x1="45.8374" y1="61.4108" x2="47.2725" y2="56.0563"/>
        <line class="cls-62" x1="41.2515" y1="56.5133" x2="45.8384" y2="61.4117"/>
        <line class="cls-62" x1="30.4588" y1="52.7793" x2="30.7959" y2="59.985"/>
        <line class="cls-62" x1="47.8496" y1="76.9742" x2="54.3898" y2="78.8477"/>
        <line class="cls-62" x1="26.3607" y1="71.4048" x2="30.6265" y2="74.1129"/>
        <line class="cls-62" x1="30.8702" y1="84.1359" x2="28.7118" y2="84.9301"/>
        <line class="cls-62" x1="21.5008" y1="78.8264" x2="22.0507" y2="81.3812"/>
        <line class="cls-62" x1="32.5205" y1="82.7459" x2="30.8702" y2="84.1359"/>
        <line class="cls-62" x1="43.8268" y1="53.9387" x2="41.2517" y2="56.5138"/>
        <line class="cls-62" x1="45.8384" y1="61.4122" x2="40.7842" y2="65.2193"/>
        <line class="cls-62" x1="33.4531" y1="64.3111" x2="29.1949" y2="68.5706"/>
        <line class="cls-62" x1="30.4588" y1="52.7793" x2="32.0638" y2="53.9387"/>
        <line class="cls-62" x1="37.9453" y1="59.8202" x2="36.9302" y2="70.9044"/>
      </g>
    </g>
    <g>
      <path class="cls-63" d="M48.2,49.4305a8.9213,8.9213,0,1,1-6.3083,2.613A8.863,8.863,0,0,1,48.2,49.4305m0-1a9.9213,9.9213,0,1,0,7.0154,2.9059A9.89,9.89,0,0,0,48.2,48.4305Z" transform="translate(-0.062)"/>
      <g class="cls-64">
        <circle class="cls-65" cx="48.1377" cy="58.3518" r="9.9213"/>
      </g>
      <path class="cls-66" d="M53.5022,55.2933a6.1459,6.1459,0,0,0-2.8252-2.54" transform="translate(-0.062)"/>
      <path class="cls-42" d="M48.2,48.4305a9.9213,9.9213,0,1,1-7.0154,2.9059A9.8905,9.8905,0,0,1,48.2,48.4305m0-1a10.9213,10.9213,0,1,0,7.7225,3.1988A10.8495,10.8495,0,0,0,48.2,47.4305Z" transform="translate(-0.062)"/>
      <path class="cls-35" d="M48.2,47.4305a10.9326,10.9326,0,0,0-5.2749,1.3563.5.5,0,1,0,.4837.8752,9.8556,9.8556,0,0,1,3.6052-1.1613h0l.0154-.0019h0l.0232-.0027h0l.0153-.0017,0,0,.0232-.0026h0l.0153-.0017h.0007l.0147-.0017h.0009l.0074-.0008h0l.0074-.0008,0,0,.0075-.0008h0l.015-.0016.0007,0,.0148-.0015.0008,0,.0073-.0007.0006,0,.0072-.0007h0l.0075-.0008.0005,0,.015-.0014.0007,0,.0153-.0015h0l.0157-.0015h0l.0078-.0007,0,0,.0154-.0014h0l.0152-.0014,0,0,.0075-.0007h.0006L47.31,48.47l.0008,0,.0149-.0013.0007,0,.0151-.0013h0l.0077-.0007h0l.0154-.0013h.0005l.0152-.0013h0l.0155-.0013h0l.0076-.0006h.0006l.015-.0012.0008,0,.0148-.0011.001,0,.0073-.0005,0,0,.0072,0h0l.0074-.0006h.0009l.0149-.0011.0006,0,.0151-.0011h.0006l.0073,0,.001,0,.0071,0h0l.0075-.0005.0008,0,.0149-.001h.0008l.0152-.001h0l.0077-.0005h0l.0077-.0005h0l.0075,0,.0007,0,.015-.0009h.0008l.0074,0h0l.0074,0,0,0,.0074,0,.0009,0,.0147-.0008.0012,0,.0146-.0008.001,0,.0073,0H47.65l.0068,0h.001l.0072,0,.0009,0,.0147-.0007.0012,0,.0071,0,.0008,0,.0068,0,.0009,0,.0073,0,.0008,0,.0074,0h0l.0075,0h.001l.0147-.0007.0012,0,.0073,0h0l.0069,0,.0013,0,.007,0,.0012,0,.0066,0,.0008,0,.0071,0h.0014l.0145-.0006.0011,0,.0073,0h.0006l.0069,0h.001l.007,0h.0015l.0066,0h0l.0072,0h.0013l.0145,0,.0014,0,.0072,0h.0006l.0069,0h.0009l.0073,0,.0009,0,.0073,0h0l.0073,0,.0012,0,.0073,0h0l.0071,0,.0012,0,.0071,0h.0012l.0064,0H47.92l.007,0h.0016l.0069,0h0l.0069,0,.0019,0,.0069,0h.0008l.0065,0H47.96l.0069,0h.0015l.0061,0h.0013l.0069,0,.0016,0,.0069,0h0l.0069,0H48l.0067,0,.0016,0,.0058,0h.0016l.0068,0,.0018,0,.0061,0h.001l.007,0H48.04l.0071,0h0l.0071,0,.0015,0h.0069l.0015,0H48.07l.0016,0h.0068l.0017,0h.0062l.001,0h.0086l.0069,0h.0011l.0062,0h.0087l.001,0h.0076l.0069,0h.0089l.0071,0h.0257l.0064,0H48.2a.5.5,0,0,0,0-1Zm-8.2085,4a.4991.4991,0,0,0-.394.1917,10.9128,10.9128,0,0,0-2.1812,4.9914.5.5,0,0,0,.4148.5728.5122.5122,0,0,0,.08.0063.5.5,0,0,0,.4928-.4193,9.8522,9.8522,0,0,1,.3044-1.3176h0l.0291-.094,0,0,.0118-.0372,0,0,.009-.0277,0,0,.009-.0277,0,0L38.77,55.26l0-.0005.0089-.0273,0-.001.009-.0273,0,0,.0029-.0087,0-.0006.0093-.0274,0-.0005.0093-.0273,0-.0008.0029-.0085,0-.0005.0093-.0271,0-.001.0094-.0269,0-.001.0029-.0082,0-.0007.0063-.018,0-.0007.0029-.0082,0-.001.01-.0267,0-.0013L38.859,55l0,0,.0065-.0181,0-.0007.0029-.0082,0-.0009.01-.0268,0-.0009.0031-.0084,0-.0005.0066-.0178,0-.001.003-.0081,0-.0008.0067-.018,0,0,.0031-.0085,0-.0011.0032-.0085,0,0,.0067-.0179,0-.0009.003-.0082,0-.0007.0068-.0179,0,0,.0032-.0084,0-.0009.01-.0264.0005-.0013.003-.0079,0-.0007.0069-.0178,0-.0006.0031-.0081,0-.0011.01-.0265,0-.0007.0033-.0085,0,0,.0071-.0178,0-.0007.0032-.0081,0-.0009.0071-.0178,0,0,.0033-.0085,0-.0009.0034-.0085,0,0,.0072-.0177,0-.0008.0032-.0081,0-.0008.0072-.0177v0l.0035-.0085,0-.0007.0109-.0264,0-.0008.0034-.0083,0,0,.011-.0266,0-.0005.0111-.0266,0,0,.0151-.0357,0,0,.0114-.0267,0,0,.0153-.0355,0,0,.0116-.0267v0l.0117-.0265,0,0,.0038-.0086h0l.0117-.0265,0,0a9.9253,9.9253,0,0,1,1.2537-2.0821.5.5,0,0,0-.3944-.8069Zm-1.9078,8.9313a.5.5,0,0,0-.4858.62,10.931,10.931,0,0,0,2.59,4.7913.5.5,0,0,0,.7335-.68l-.0023-.0025-.0035-.0037-.0026-.0029-.0032-.0035-.0028-.003-.0035-.0038-.0023-.0025-.0056-.006-.0021-.0023L40.89,65.06l-.0023-.0024-.0039-.0043-.0021-.0023-.0057-.0063-.0009-.0009-.0049-.0054-.0021-.0023-.0042-.0046-.0017-.0019-.012-.0132-.0013-.0014-.0047-.0051-.0017-.0019-.005-.0056-.0008-.0009-.0061-.0067-.001-.0011-.005-.0056-.0015-.0016-.0049-.0055-.0011-.0012-.0121-.0136-.0011-.0012-.0052-.0058-.001-.0011-.0123-.0138-.0005-.0006-.0057-.0063-.0007-.0009-.0185-.0209-.0008-.0009-.0057-.0064,0-.0005-.0124-.0141-.0006-.0007-.0057-.0065-.0006-.0006-.0124-.0142,0,0-.0058-.0068-.0008-.0008a9.9505,9.9505,0,0,1-1.1418-1.6091h0l-.0192-.0338h0l-.0285-.0509,0,0-.0141-.0255,0,0-.014-.0255,0,0L39.492,63.11l0-.0006-.0137-.0251,0-.0006-.0136-.0252,0,0-.0043-.008,0-.0005-.0092-.017h0l-.0044-.0082,0-.0007-.0134-.0251-.0005-.0009-.0041-.0077,0-.0006-.0089-.0168,0-.0006-.0041-.0077,0-.0009-.0088-.0167,0-.0007L39.4,62.9388,39.4,62.9377l-.0042-.008v0l-.0087-.0167-.0007-.0013-.0039-.0075,0-.0007-.0087-.0168,0-.0009-.0038-.0073-.0006-.0013L39.36,62.86l0,0-.0039-.0077-.0006-.0012-.004-.0078,0,0-.0085-.0167-.0007-.0014-.0037-.0073,0-.0009L39.329,62.8l-.0007-.0015-.0035-.0068L39.324,62.79l-.0082-.0166-.0005-.001-.0036-.0072-.0008-.0015-.0037-.0074,0-.0009-.0042-.0085h0l-.004-.008-.0008-.0017-.0034-.0068-.0007-.0015-.0081-.0166-.0006-.0012-.0035-.007-.0008-.0017-.0039-.0079v0l-.0041-.0084-.0007-.0013-.0033-.0069-.001-.0019-.0032-.0068-.0007-.0014-.0041-.0084,0,0-.0038-.0078-.0008-.0018-.0032-.0066-.0008-.0017-.008-.0166-.0007-.0015-.0032-.0066-.0009-.002-.0036-.0074,0-.0007-.0039-.0084-.0007-.0014-.0032-.0068-.001-.002-.0031-.0066-.0008-.0017-.0039-.0083,0,0-.0037-.0078-.001-.0022-.003-.0063-.0009-.002-.0076-.0163-.001-.0021-.0028-.006-.0012-.0026-.0031-.0067-.0006-.0013-.0037-.0081-.0009-.0019-.0029-.0063-.0011-.0024-.0029-.0063-.0009-.0019-.0038-.0083,0-.0006-.0034-.0074-.0011-.0024-.0028-.0061-.0009-.0021-.0036-.0078,0,0-.0037-.0082-.0009-.002-.0029-.0063-.001-.0023-.0031-.0069-.0006-.0013-.0037-.0082-.0008-.0018-.0029-.0065-.001-.0023-.0029-.0063-.0009-.002-.0036-.0082,0-.0008-.0032-.0072-.0012-.0027-.0026-.0057-.0011-.0026-.0032-.0073,0-.0008-.0036-.0081-.001-.0022-.0026-.0061-.0012-.0026-.0028-.0064-.0008-.0017-.0035-.0082-.0008-.0018-.0029-.0065-.0011-.0025-.0025-.0058L39.1,62.3116l-.0035-.008,0-.0012-.0031-.007-.0011-.0025L39.09,62.287l-.0011-.0025-.003-.007-.0006-.0013-.0035-.0081-.0009-.0022-.0026-.006-.0011-.0027-.0027-.0061-.0009-.0022-.0034-.008-.001-.0022-.0025-.006L39.065,62.23l-.0025-.006-.001-.0022-.0069-.0165-.0011-.0025-.0025-.0059-.0011-.0026-.003-.0071,0-.0011-.0034-.0081-.0011-.0025L39.04,62.17l-.0012-.0029-.0026-.0062-.0008-.0019-.0034-.0081-.0009-.0023-.0025-.006-.0012-.0028-.0023-.0057-.0011-.0027-.0033-.0081-.0005-.001-.0029-.0072-.0012-.0029-.0022-.0055-.0012-.0028-.0026-.0063-.0008-.0021-.0033-.008-.001-.0025-.0023-.0057-.0012-.003-.0024-.0059-.001-.0024-.0032-.008-.001-.0024-.0024-.0059-.0011-.0029-.0023-.0057-.0011-.0028-.0033-.008,0-.0008-.0029-.0073-.0012-.0031-.0022-.0054-.0012-.003-.0025-.0063-.0007-.002-.0032-.0081-.001-.0024-.0023-.006-.0012-.0029-.0023-.0059-.001-.0024-.0031-.0081-.0009-.0021-.0024-.0062-.0012-.0031-.002-.0052-.0013-.0032-.0026-.0068-.001-.0025-.0027-.007-.0011-.0028-.0021-.0056-.0012-.003-.0023-.006-.0009-.0024-.0031-.0081-.001-.0024-.0022-.0059-.0012-.003-.0022-.0058-.001-.0026-.0031-.0081-.0007-.0019-.0024-.0064-.0011-.003-.0022-.0057-.0011-.0028-.0028-.0075,0-.0009-.003-.008-.0011-.0029-.0022-.0057-.001-.0029-.0024-.0064-.0008-.0019-.003-.0082-.001-.0027-.0021-.0056-.0012-.0032-.0022-.0059-.0009-.0024-.003-.0083-.0006-.0016-.0025-.0068-.001-.0027-.0022-.0061-.0009-.0024-.0062-.0169-.0008-.0023-.0024-.0064-.0008-.0024-.0025-.0068-.0007-.0018-.003-.0084-.0007-.0019-.0023-.0066-.001-.0026-.0023-.0065-.0007-.002-.0031-.0085,0-.0012-.0026-.0073-.0009-.0025-.0022-.0062-.0009-.0025-.0029-.0082,0,0-.003-.0085-.0008-.0024-.0023-.0064-.0008-.0023-.0025-.0072,0-.0014-.003-.0086-.0006-.0016-.0024-.007-.0009-.0024-.0023-.0068-.0006-.0018-.0031-.0087,0,0-.0028-.0082-.0008-.0021-.0022-.0065-.0008-.0024-.0028-.0082,0,0-.003-.0087-.0007-.0019-.0023-.0068-.0007-.0022-.0025-.0074-.0005-.0013-.003-.0089,0-.0008-.0026-.0077-.0007-.0022-.0023-.0069-.0007-.0018-.0029-.0088,0,0-.0028-.0083-.0007-.0023-.0022-.0067-.0007-.0021-.0058-.0174-.0006-.0018-.0023-.0071-.0007-.002-.0025-.0076,0-.0011-.0029-.009,0-.0006-.0026-.008-.0007-.002-.0024-.0075,0-.0012-.0058-.0179L38.7556,61.4l-.0024-.0075-.0005-.0016-.0057-.0179,0-.0011-.0025-.0078-.0005-.0015-.0026-.0081,0-.0009-.0057-.018,0-.0013-.0026-.0082,0-.0008-.0057-.0185,0-.0005-.0027-.0086,0-.0009-.0058-.0184,0,0-.0027-.0088,0-.0009-.0085-.0276,0-.0008-.0027-.0089,0,0-.0057-.0188,0,0-.0026-.0087,0-.0009-.0083-.0279,0,0-.0083-.0282,0,0-.011-.0377,0,0-.0081-.0285h0c-.0319-.1116-.0619-.2244-.09-.3375a.5.5,0,0,0-.4847-.3792Zm5.8614,7.005a.5.5,0,0,0-.2046.9565A10.8392,10.8392,0,0,0,48.2,69.273c.3029,0,.6088-.0125.9093-.0373a.5.5,0,0,0-.0406-.9984q-.0207,0-.0417.0018h-.0006l-.0011,0-.0059.0005-.0027,0-.0044,0-.0034,0-.0033,0-.004,0-.0015,0-.0112.0008,0,0-.0057,0-.001,0-.0057,0-.0009,0q-.2558.02-.515.0265h0l-.0321.0008h-.0007l-.006,0h-.0006l-.0245.0005-.0016,0-.0053,0h-.0018l-.0051,0h-.0014l-.0118,0h0l-.0049,0-.0024,0h-.0043l-.0031,0H48.35l-.0032,0h-.0041l-.0021,0-.0083,0h-.0034l-.0039,0h-.0033l-.0039,0H48.311l-.0059,0h-.0028l-.0055,0h-.0031l-.0043,0h-.0105l-.0056,0h-.0088l-.0028,0h-.0149l-.0055,0h-.0829l-.0036,0h-.0164l-.0047,0h-.0081l-.004,0h-.0082l-.0044,0h-.0083l-.0038,0h-.0044l-.0038,0h-.0046l-.0036,0h-.0048l-.0034,0h-.0048l-.0035,0h-.0051l-.003,0-.0058,0h-.0025l-.0164,0h-.0027l-.0056,0H48.02l-.0053,0-.0031,0-.0052,0-.0033,0-.0048,0h-.0036l-.0046,0-.0037,0-.0046,0-.0035,0-.0048,0-.0035,0-.0046,0h-.0036l-.0047,0h-.0035l-.0048,0h-.0034l-.0048,0-.0035,0-.0046,0-.0036,0-.0048,0-.0033,0-.0051,0-.0031,0-.0052,0-.0031,0-.0053,0-.0029,0-.0065,0-.0017,0-.0083,0h0l-.0078,0-.0027,0-.0055,0-.0032,0-.005,0-.003,0-.0053,0-.003,0-.0052,0-.0031,0-.005,0-.0033,0-.005,0-.003,0-.0053,0-.003,0-.0051,0-.0032,0-.0049,0-.0034,0-.0049,0-.0032,0-.0051,0-.0031,0-.0052,0-.0029,0-.0055,0-.0027,0-.0061,0-.002,0-.0064,0-.0019,0-.0069,0h-.0013l-.0247-.0012-.0015,0-.0068,0-.0017,0-.0064,0-.0023,0-.006,0-.0023,0-.0057,0-.0028,0-.0054,0-.003,0-.005,0-.0033,0-.005,0-.0031,0-.0051,0-.003,0-.0053,0-.0029,0-.0053,0-.0028,0-.0056,0-.0026,0-.0056,0-.0025,0-.0059,0-.0023,0-.0062,0-.0019,0-.0073,0-.0008,0-.0332-.002,0,0-.0078-.0005-.0016,0-.0065,0-.002,0-.0062,0-.0022,0-.006,0-.002,0-.0062,0-.0022,0-.006,0-.0021,0-.0061,0-.0022,0-.006-.0005-.002,0-.0062,0-.0021,0-.0063,0-.0018,0-.0064,0-.0018,0-.0067,0-.0014,0-.0074-.0005-.0007,0-.05-.0038h0l-.0082-.0007h0L47.38,68.24l-.001,0-.0071-.0006-.0014,0-.0067-.0006-.0017,0-.0065-.0006-.0016,0-.0066-.0006-.0016,0-.0067-.0006-.0015,0-.0066-.0006-.0016,0-.0068-.0006-.0012,0-.0073-.0007H47.313l-.0077-.0007,0,0-.008-.0007h0l-.0824-.0078h0l-.0081-.0008h0l-.0078-.0008h-.0006l-.0078-.0008h0l-.0081-.0009h0l-.0081-.0008h0l-.0082-.0009h0a9.8563,9.8563,0,0,1-3.0175-.8093.4988.4988,0,0,0-.2025-.0431ZM56.916,63.5666a.4994.4994,0,0,0-.4183.2255q-.232.3533-.4928.6849v0l-.0369.0466,0,0-.0369.0462,0,0-.0232.0287,0,0-.0183.0226-.0006.0007-.0182.0221-.0008.001-.0042.0052,0,.0005-.0134.0163-.0008.0009-.0043.0052-.0006.0007-.0134.0161-.0007.0009-.0042.005-.0008.001-.0136.0163,0,0-.0043.0052-.0009.0011-.0181.0215-.001.0012-.0043.0051,0,0-.0134.0159-.0011.0013-.0042.0049-.0008.0009-.0134.0158-.0007.0008-.0043.0051-.0009.001-.0132.0154-.001.0012-.004.0047-.0013.0015-.0041.0048,0,0-.0086.01-.0013.0016-.0037.0043-.0018.0021-.0037.0041L55.7,64.846l-.008.0092-.0005.0006-.0039.0045-.0016.0019-.0038.0043-.0016.0019-.0124.0142-.0018.002-.0035.0041-.002.0021-.0123.0141-.0016.0018-.0037.0042-.002.0023-.0035.004-.0016.0017-.0068.0077-.0021.0024-.0033.0037-.0025.0029-.0032.0036-.0025.0028-.0057.0064-.0025.0027-.0032.0037-.0026.0028-.0032.0036-.0024.0027-.0058.0065-.0025.0028-.003.0033-.0028.0032-.0031.0034-.0027.003-.003.0034-.0051.0056-.003.0033-.0029.0032-.0029.0033-.003.0032-.0029.0032-.0042.0047-.0037.0041-.0031.0034-.003.0033-.0028.0031-.003.0032-.0034.0037-.0043.0048-.0035.0038-.0027.003-.0031.0033-.0028.0031-.0034.0037-.0039.0042-.004.0044L55.5,65.07l-.0032.0035-.0028.003-.0033.0036-.0026.0028-.0054.0059-.0025.0027-.0034.0037-.0027.0029-.0035.0037-.0025.0027-.0055.0059-.0021.0023-.0038.0041-.0026.0028-.0035.0037-.0026.0028-.005.0053-.0027.0029-.0036.0038-.0029.0031-.0032.0035-.0027.0028-.0045.0048-.0021.0022-.0049.0053-.0025.0026-.0036.0038-.0026.0028-.0042.0043-.0017.0018-.0058.0061-.0021.0023-.004.0042-.0023.0024-.0042.0044-.0019.002-.0058.0061-.0019.002-.0042.0044-.0024.0025-.004.0041-.002.0022-.0058.006-.0018.0018-.0044.0047-.0022.0022-.0041.0043-.0021.0022-.0055.0057-.0015.0015-.005.0051-.0023.0025-.004.0041-.0021.0022-.005.0051-.0012.0013-.006.0061-.0018.0019-.0045.0046-.002.002-.005.0051-.0012.0012-.0061.0063-.0016.0017-.0047.0047-.0019.0019-.0048.0049-.0015.0016-.0062.0063-.0009.0009-.0055.0055-.0015.0016-.0051.0051-.0014.0014-.0063.0064,0,0-.0062.0063-.0013.0013-.0052.0052-.0015.0015-.0127.0127-.0014.0014-.0052.0052-.0014.0014-.0061.0061,0,0-.0066.0067-.0008.0007-.0057.0057-.0013.0013-.0059.0058-.0005.0005-.0067.0066,0,.0005-.0061.006-.0012.0011-.0056.0056-.001.0009-.0131.013-.0011.001-.0057.0056-.001.001-.0133.013-.0008.0008-.0058.0056-.0011.0011-.0132.0128-.001.001-.0057.0055L55.1,65.48l-.0062.006,0,0-.0069.0067h0l-.0064.0061-.0012.0012-.0061.0058,0,.0005-.0135.013-.0009.0008-.0061.0058-.0007.0007-.0137.0131-.0005.0005-.0064.006-.0006.0006-.0137.013-.0006.0006-.0062.0058-.0009.0009-.0136.0128,0,.0005-.0062.0058-.001.001-.0066.0062h0l-.0138.0129-.0008.0008-.0067.0062h0l-.0141.0131-.0005,0-.0065.006-.0005.0005-.014.0129,0,0-.0067.0062,0,0-.0211.0194-.0005,0-.0212.0194,0,0-.0214.0194,0,0-.0287.0259,0,0c-.0387.0348-.0774.069-.1167.1031l0,0a9.9514,9.9514,0,0,1-1.8668,1.2816.5.5,0,0,0,.4687.8834,10.9881,10.9881,0,0,0,4.0257-3.666.5.5,0,0,0-.4175-.7745Zm1.1563-9.06a.5.5,0,0,0-.4736.6606,9.8689,9.8689,0,0,1,.471,2.1705h0q.01.1015.0186.2038v0l.0025.0312v0l.0024.031v.0006l.0006.0073v0l.0017.0231v.0008l0,.0069,0,.0009.0005.0073v0l.0011.0156v.0006l0,.0071,0,.0007,0,.0072,0,.0005.0015.0232v.0008l.0005.0067v.0012l.0015.0229v.0009l0,.0066,0,.0014,0,.0071v0l.001.0156V57.77l0,.0067,0,.0016,0,.0063,0,.0012.0008.0153,0,0,0,.007,0,.0016,0,.0061v.0015l0,.0066v.0009l.0008.015,0,.0018,0,.0058,0,.0018,0,.0061v.0014l.0008.015v.0015l0,.0061,0,.0017,0,.006,0,.0017,0,.0068v.0006l0,.0075,0,.0013,0,.0062v.0019l0,.0057,0,.0019,0,.0065,0,.0008.0006.0152,0,.0016,0,.0059,0,.0019,0,.0059,0,.0016.0005.015,0,.0017,0,.0057,0,.0021,0,.0057,0,.0018,0,.0066V58l0,.0076v.0008l0,.0066,0,.0019,0,.0057,0,.0019,0,.006,0,.0015,0,.015v.0019l0,.0056v.0021l0,.0055,0,.0021,0,.0072v0l0,.0075v.0019l0,.0055v.0024l0,.0051v.0025l0,.0055v.0018l0,.0073v.0019l0,.0055v.0026l0,.0048,0,.0027,0,.0053v.002l0,.0148,0,.0022,0,.0052v.0027l0,.005,0,.0023,0,.0064v.001l0,.0073,0,.0022,0,.0052v.0026l0,.0052V58.2l0,.0058v.0017l0,.0074v.0017l0,.0056,0,.0027v.0075l0,.005V58.24l0,.0146v.0075l0,.0027v.0074l0,.0063v.0083l0,.0026v.0151l0,.0055v.0416h0v.0409l0,.0055v.01l0,.0069v.01l0,.0049v.0077l0,.0028v.0076l0,.0061v.0014l0,.0077v.0009l0,.0065v.0027l0,.005v.0028l0,.0048v.0028l0,.005v.0026l0,.0056v.0018l0,.0071v.0006l0,.0078v.001l0,.0064V58.53l0,.0053,0,.0025,0,.0051v.0026l0,.0053,0,.0023,0,.0059V58.56l0,.0155,0,.0007,0,.0069v.0017l0,.0059v.0021l0,.0057v.0019l0,.0059v.0019l0,.007v0l0,.0158v0l0,.0072,0,.0016,0,.0062v.0015l0,.0065v.0012l0,.007v.0007l-.001.0314v.0006l0,.0071v.001l0,.007,0,.0007,0,.0077h0l-.0013.0318h0l0,.0078v0a9.9549,9.9549,0,0,1-.1455,1.3419.5.5,0,1,0,.9845.1751,11.015,11.015,0,0,0,.1692-1.9245,10.9047,10.9047,0,0,0-.5751-3.5058.5.5,0,0,0-.4735-.34ZM51.647,48.0142a.5.5,0,0,0-.1657.9719q.2246.0786.4441.1677l0,0,.0272.0111h0l.0273.0112,0,0,.009.0037h0l.0271.0113,0,0,.0269.0113,0,0,.0267.0113.0007,0,.0086.0036,0,0,.0179.0076.0006,0,.0082.0036.0008,0,.0177.0076,0,0,.0083.0036.0009,0,.0177.0077h0l.0085.0037.0011,0,.0083.0036,0,0,.0175.0077.0011.0005.0076.0033.0011.0005.0171.0076.0015.0006.0073.0032.0013.0006.0172.0077.0009,0,.0075.0033.0016.0008.0079.0035,0,0,.0088.0039,0,0,.0079.0036.0015.0007.0074.0033.0012,0,.0168.0077.0017.0008.007.0031.0015.0008.0168.0076.0016.0008.0068.0031.002.0009.0073.0034.0009,0,.0082.0038.0018.0008.0066.0031.0021.0009.0069.0032.0013.0006.0084.004.0006,0,.0076.0036.002.0009.0066.0031.0018.0008.0083.0039h0l.0081.0038.0021.001.0061.0029.0024.0011.0075.0036.0005,0,.0083.0039.0018.0009.0063.003.0024.0011.0063.0031.0019.0008.0081.0039.0015.0007.0064.0031.0027.0013.0058.0028.0023.0011.008.0038.0012.0006.0067.0033.0027.0012.0055.0027.0028.0014.0071.0034.0009,0,.0075.0037.003.0015.0052.0025.003.0014.0059.0029.002.001.0077.0038.0027.0013.0052.0026.0033.0016.0049.0024.003.0015.0074.0036.003.0015.0049.0025.0035.0017.0045.0022.0034.0017.006.003.0043.0021.0047.0024.004.002.0038.0019.004.002.004.002.0067.0033.004.002.0041.0021.0037.0019.004.002.0043.0021.0035.0018.007.0036.0039.0019.0039.002.0039.002.004.002.0039.002.0056.0029.0052.0026.0037.0019.0041.0021.0039.002.0039.002.0041.0021.0066.0034.0039.002.0041.0021.0036.0019.0043.0022.0033.0017.008.0042.003.0015.0044.0023.0033.0017.0045.0023.0028.0015.016.0084.0029.0015.0046.0024.003.0016.0046.0024.0023.0012.0089.0047.003.0016.0045.0024.0029.0015.0048.0025.0023.0012.01.0052.0019.001.0049.0026.0026.0014.0048.0026.0025.0013.0114.0061h0l.005.0027.0024.0013.005.0026.0024.0013.0169.0091.0018.001.0052.0028.0021.0011.0054.003.0005,0,.0115.0063.0015.0008.0052.0028.0022.0012.0052.0029.0014.0007.0178.01.0014.0008.0057.0031.0011.0006.0183.01.0009.0005.0058.0032.0011.0006.0187.01,0,0,.0059.0033.0012.0007.0252.0141.0005,0,.0257.0145,0,0,.0063.0036,0,0,.0256.0146,0,0,.0256.0146.0005,0a9.9682,9.9682,0,0,1,2.4557,1.9917.5.5,0,1,0,.745-.667,10.9574,10.9574,0,0,0-4.5267-3.0273.4984.4984,0,0,0-.1653-.0283Z" transform="translate(-0.062)"/>
    </g>
    <circle class="cls-67" cx="71.1107" cy="49.679" r="4.4043"/>
    <circle class="cls-68" cx="4.7799" cy="49.679" r="4.4043"/>
    <circle class="cls-67" cx="71.1107" cy="87.3798" r="4.4043"/>
    <circle class="cls-67" cx="4.7808" cy="87.3797" r="4.4043"/>
    <g>
      <line class="cls-69" x1="4.1097" y1="51.0943" x2="6.9402" y2="48.2638"/>
      <line class="cls-69" x1="2.6197" y1="49.6042" x2="4.1097" y2="51.0943"/>
    </g>
    <g>
      <line class="cls-69" x1="70.4413" y1="51.0943" x2="73.2717" y2="48.2638"/>
      <line class="cls-69" x1="68.9512" y1="49.6042" x2="70.4413" y2="51.0943"/>
    </g>
    <g>
      <line class="cls-69" x1="70.4396" y1="88.7952" x2="73.27" y2="85.9648"/>
      <line class="cls-69" x1="68.9496" y1="87.3052" x2="70.4396" y2="88.7952"/>
    </g>
    <g>
      <line class="cls-69" x1="4.1097" y1="88.7952" x2="6.9402" y2="85.9648"/>
      <line class="cls-69" x1="2.6197" y1="87.3052" x2="4.1097" y2="88.7952"/>
    </g>
    <g>
      <line class="cls-70" x1="3.3647" y1="51.0942" x2="6.1952" y2="48.2638"/>
      <line class="cls-70" x1="3.3647" y1="48.2638" x2="6.1952" y2="51.0942"/>
    </g>
    <g>
      <line class="cls-70" x1="69.6954" y1="51.0942" x2="72.5259" y2="48.2638"/>
      <line class="cls-70" x1="69.6954" y1="48.2638" x2="72.5259" y2="51.0942"/>
    </g>
    <g>
      <line class="cls-70" x1="69.6954" y1="88.795" x2="72.5259" y2="85.9646"/>
      <line class="cls-70" x1="69.6954" y1="85.9646" x2="72.5259" y2="88.795"/>
    </g>
    <g>
      <line class="cls-70" x1="3.3647" y1="88.795" x2="6.1952" y2="85.9646"/>
      <line class="cls-70" x1="3.3647" y1="85.9646" x2="6.1952" y2="88.795"/>
    </g>
    <line class="cls-69" x1="10.1827" y1="51.7187" x2="18.4721" y2="54.8481"/>
    <line class="cls-70" x1="65.7079" y1="51.7187" x2="57.4185" y2="54.8481"/>
    <line class="cls-70" x1="65.7079" y1="85.3401" x2="57.4185" y2="82.2107"/>
    <line class="cls-70" x1="10.1827" y1="85.3401" x2="18.4721" y2="82.2107"/>
    <line class="cls-70" x1="65.7079" y1="85.3401" x2="57.4185" y2="82.2107"/>
    <line class="cls-70" x1="65.7079" y1="51.7187" x2="57.4185" y2="54.8481"/>
  </g>
</svg>
