<svg id="Layer_4" data-name="Layer 4" xmlns="http://www.w3.org/2000/svg" xmlns:xlink="http://www.w3.org/1999/xlink" viewBox="0 0 76.0146 47.6272">
  <defs>
    <style>
      .cls-1, .cls-10, .cls-13, .cls-14, .cls-15, .cls-16, .cls-6 {
        fill: none;
      }

      .cls-2 {
        fill: url(#primary_gradient);
      }

      .cls-3 {
        fill: #333;
      }

      .cls-4 {
        clip-path: url(#clip-path);
      }

      .cls-5, .cls-6 {
        stroke: #1a1a1a;
        stroke-linejoin: round;
      }

      .cls-10, .cls-13, .cls-14, .cls-15, .cls-16, .cls-5, .cls-6 {
        stroke-linecap: round;
      }

      .cls-13, .cls-14, .cls-15, .cls-16, .cls-5, .cls-6 {
        stroke-width: 0.75px;
      }

      .cls-5 {
        fill: url(#primary_gradient-2);
      }

      .cls-7 {
        fill: #999;
      }

      .cls-8 {
        opacity: 0.15;
      }

      .cls-9 {
        fill: #b3b3b3;
      }

      .cls-10 {
        stroke: #e6e6e6;
        stroke-width: 1.5px;
        opacity: 0.8;
      }

      .cls-10, .cls-13, .cls-14, .cls-15, .cls-16 {
        stroke-miterlimit: 10;
      }

      .cls-11 {
        fill: #666;
      }

      .cls-12 {
        fill: #4d4d4d;
      }

      .cls-13, .cls-16 {
        stroke: gray;
      }

      .cls-13, .cls-14 {
        stroke-dasharray: 0.5 1.5;
      }

      .cls-14, .cls-15 {
        stroke: #f73c39;
      }
    </style>
    <linearGradient id="primary_gradient" data-name="primary gradient" x1="24.8437" y1="23.8283" x2="51.1709" y2="23.8283" gradientUnits="userSpaceOnUse">
      <stop offset="0.2367" stop-color="#f78739"/>
      <stop offset="0.5058" stop-color="#f76539"/>
      <stop offset="0.7843" stop-color="#f74739"/>
      <stop offset="0.9428" stop-color="#f73c39"/>
    </linearGradient>
    <clipPath id="clip-path">
      <circle class="cls-1" cx="48.1997" cy="13.636" r="9.9213"/>
    </clipPath>
    <linearGradient id="primary_gradient-2" x1="21.5628" y1="23.8284" x2="54.4518" y2="23.8284" xlink:href="#primary_gradient"/>
  </defs>
  <g>
    <path class="cls-2" d="M46.6709,36.9918a4.4728,4.4728,0,0,1-3.1821-1.3178l-5.128-5.128a.5.5,0,0,0-.707,0l-5.1279,5.128A4.5,4.5,0,0,1,26.1616,29.31L31.29,24.1818a.5.5,0,0,0,0-.707l-5.1279-5.128a4.5,4.5,0,0,1,6.3643-6.3642l5.1279,5.1279a.5.5,0,0,0,.707,0l5.128-5.1279a4.5,4.5,0,0,1,6.3642,6.3642l-5.1279,5.128a.5.5,0,0,0,0,.707L49.853,29.31a4.5,4.5,0,0,1-3.1821,7.6821Z"/>
    <path class="cls-3" d="M46.6709,11.1649a4,4,0,0,1,2.8285,6.8283l-5.1279,5.128a1,1,0,0,0,0,1.4142l5.1279,5.1279a4,4,0,0,1-5.657,5.6571l-5.128-5.1279a1,1,0,0,0-1.4142,0L32.1725,35.32a4,4,0,1,1-5.6573-5.6569l5.1279-5.1279a1,1,0,0,0,0-1.4142l-5.1279-5.128a4,4,0,0,1,5.6571-5.657L37.3,17.4641a1,1,0,0,0,1.4142,0l5.1278-5.1278a3.9755,3.9755,0,0,1,2.8287-1.1714m0-1a4.9856,4.9856,0,0,0-3.5356,1.4642l-5.128,5.1279-5.1279-5.1279A5,5,0,0,0,25.8081,18.7l5.1279,5.128-5.1279,5.1279a5,5,0,0,0,7.0713,7.0713L38.0073,30.9l5.128,5.1279a5,5,0,1,0,7.0712-7.0713l-5.1279-5.1279L50.2065,18.7a5,5,0,0,0-3.5356-8.5354Z"/>
  </g>
  <g class="cls-4">
    <polygon class="cls-5" points="35.687 34.926 38.007 32.605 40.672 35.27 43.889 38.487 45.387 39.591 47.436 40.244 49.446 40.186 51.67 39.279 53.913 36.64 54.452 34.132 54.031 31.864 52.639 29.736 49.722 26.819 46.758 23.855 49.507 21.105 52.639 17.973 54.179 15.418 54.441 13.234 53.768 10.768 51.435 8.283 48.705 7.426 45.695 7.967 43.889 9.223 41.314 11.798 38.007 15.104 35.12 12.217 32.126 9.223 30.521 8.063 27.57 7.413 25.166 7.974 22.301 10.664 21.647 12.576 21.662 14.703 22.218 16.372 23.661 18.259 26.616 21.213 29.257 23.855 26.423 26.689 23.375 29.736 22.016 31.783 21.563 34.111 22.113 36.665 24.16 39.152 26.242 40.113 28.774 40.214 30.932 39.42 32.582 38.03 35.687 34.926"/>
    <g>
      <polygon class="cls-6" points="45.9 16.696 47.334 11.341 41.314 11.798 45.9 16.696"/>
      <polygon class="cls-6" points="43.415 30.107 38.007 32.605 40.672 35.27 43.415 30.107"/>
      <polygon class="cls-6" points="27.57 7.413 30.521 8.063 30.857 15.269 27.57 7.413"/>
      <polygon class="cls-6" points="25.166 7.974 24.899 13.92 22.301 10.664 25.166 7.974"/>
      <polygon class="cls-6" points="22.301 10.664 24.899 13.92 21.647 12.576 22.301 10.664"/>
      <polygon class="cls-6" points="25.166 7.974 27.57 7.413 24.899 13.92 25.166 7.974"/>
      <polygon class="cls-6" points="27.57 7.413 30.857 15.269 24.899 13.92 27.57 7.413"/>
      <polygon class="cls-6" points="21.647 12.576 24.899 13.92 21.662 14.703 21.647 12.576"/>
      <polygon class="cls-6" points="21.662 14.703 24.899 13.92 22.218 16.372 21.662 14.703"/>
      <polygon class="cls-6" points="24.899 13.92 30.857 15.269 22.218 16.372 24.899 13.92"/>
      <polygon class="cls-6" points="26.616 21.213 30.857 15.269 29.257 23.855 26.616 21.213"/>
      <polygon class="cls-6" points="30.857 15.269 33.516 19.596 38.007 15.104 30.857 15.269"/>
      <polygon class="cls-6" points="35.12 12.217 30.857 15.269 38.007 15.104 35.12 12.217"/>
      <polygon class="cls-6" points="32.126 9.223 30.857 15.269 35.12 12.217 32.126 9.223"/>
      <polygon class="cls-6" points="30.521 8.063 30.857 15.269 32.126 9.223 30.521 8.063"/>
      <polygon class="cls-6" points="30.857 15.269 29.257 23.855 33.516 19.596 30.857 15.269"/>
      <polygon class="cls-6" points="33.516 19.596 29.257 23.855 36.992 26.189 33.516 19.596"/>
      <polygon class="cls-6" points="33.516 19.596 38.007 15.104 36.992 26.189 33.516 19.596"/>
      <polygon class="cls-6" points="36.992 26.189 38.007 15.104 40.845 20.504 36.992 26.189"/>
      <polygon class="cls-6" points="40.845 20.504 36.992 26.189 46.758 23.855 40.845 20.504"/>
      <polygon class="cls-6" points="35.687 34.926 36.992 26.189 38.007 32.605 35.687 34.926"/>
      <polygon class="cls-6" points="46.758 23.855 38.007 32.605 43.415 30.107 46.758 23.855"/>
      <polygon class="cls-6" points="36.992 26.189 46.758 23.855 38.007 32.605 36.992 26.189"/>
      <polygon class="cls-6" points="43.889 38.487 43.415 30.107 40.672 35.27 43.889 38.487"/>
      <polygon class="cls-6" points="46.758 23.855 47.911 32.259 49.722 26.819 46.758 23.855"/>
      <polygon class="cls-6" points="46.758 23.855 43.415 30.107 47.911 32.259 46.758 23.855"/>
      <polygon class="cls-6" points="49.722 26.819 47.911 32.259 52.639 29.736 49.722 26.819"/>
      <polygon class="cls-6" points="47.436 40.244 48.816 35.388 45.387 39.591 47.436 40.244"/>
      <polygon class="cls-6" points="49.446 40.186 48.816 35.388 47.436 40.244 49.446 40.186"/>
      <polygon class="cls-6" points="51.67 39.279 48.816 35.388 49.446 40.186 51.67 39.279"/>
      <polygon class="cls-6" points="52.639 29.736 47.911 32.259 54.031 31.864 52.639 29.736"/>
      <polygon class="cls-6" points="54.031 31.864 47.911 32.259 54.452 34.132 54.031 31.864"/>
      <polygon class="cls-6" points="53.913 36.64 48.816 35.388 51.67 39.279 53.913 36.64"/>
      <polygon class="cls-6" points="54.452 34.132 47.911 32.259 53.913 36.64 54.452 34.132"/>
      <polygon class="cls-6" points="53.913 36.64 47.911 32.259 48.816 35.388 53.913 36.64"/>
      <polygon class="cls-6" points="45.387 39.591 47.911 32.259 43.889 38.487 45.387 39.591"/>
      <polygon class="cls-6" points="48.816 35.388 45.387 39.591 47.911 32.259 48.816 35.388"/>
      <polygon class="cls-6" points="47.911 32.259 43.415 30.107 43.889 38.487 47.911 32.259"/>
      <polygon class="cls-6" points="38.007 15.104 40.845 20.504 41.314 11.798 38.007 15.104"/>
      <polygon class="cls-6" points="46.758 23.855 40.845 20.504 49.507 21.105 46.758 23.855"/>
      <polygon class="cls-6" points="49.507 21.105 45.9 16.696 52.639 17.973 49.507 21.105"/>
      <polygon class="cls-6" points="40.845 20.504 49.507 21.105 45.9 16.696 40.845 20.504"/>
      <polygon class="cls-6" points="48.705 7.426 47.334 11.341 45.695 7.967 48.705 7.426"/>
      <polygon class="cls-6" points="51.435 8.283 47.334 11.341 48.705 7.426 51.435 8.283"/>
      <polygon class="cls-6" points="53.768 10.768 47.334 11.341 51.435 8.283 53.768 10.768"/>
      <polygon class="cls-6" points="52.639 17.973 45.9 16.696 54.179 15.418 52.639 17.973"/>
      <polygon class="cls-6" points="54.441 13.234 47.334 11.341 53.768 10.768 54.441 13.234"/>
      <polygon class="cls-6" points="54.179 15.418 45.9 16.696 54.441 13.234 54.179 15.418"/>
      <polygon class="cls-6" points="54.441 13.234 45.9 16.696 47.334 11.341 54.441 13.234"/>
      <polygon class="cls-6" points="40.845 20.504 41.314 11.798 45.9 16.696 40.845 20.504"/>
      <polygon class="cls-6" points="45.695 7.967 47.334 11.341 43.889 9.223 45.695 7.967"/>
      <polygon class="cls-6" points="43.889 9.223 47.334 11.341 41.314 11.798 43.889 9.223"/>
      <polygon class="cls-6" points="30.689 29.397 36.992 26.189 35.687 34.926 30.689 29.397"/>
      <polygon class="cls-6" points="29.257 23.855 36.992 26.189 26.423 26.689 29.257 23.855"/>
      <polygon class="cls-6" points="26.423 26.689 36.992 26.189 30.689 29.397 26.423 26.689"/>
      <polygon class="cls-6" points="27.508 35.388 30.689 29.397 30.932 39.42 27.508 35.388"/>
      <polygon class="cls-6" points="22.016 31.783 27.508 35.388 21.563 34.111 22.016 31.783"/>
      <polygon class="cls-6" points="23.375 29.736 27.508 35.388 22.016 31.783 23.375 29.736"/>
      <polygon class="cls-6" points="26.423 26.689 27.508 35.388 23.375 29.736 26.423 26.689"/>
      <polygon class="cls-6" points="26.423 26.689 30.689 29.397 27.508 35.388 26.423 26.689"/>
      <polygon class="cls-6" points="26.242 40.113 27.508 35.388 28.774 40.214 26.242 40.113"/>
      <polygon class="cls-6" points="28.774 40.214 27.508 35.388 30.932 39.42 28.774 40.214"/>
      <polygon class="cls-6" points="24.16 39.152 27.508 35.388 26.242 40.113 24.16 39.152"/>
      <polygon class="cls-6" points="22.113 36.665 27.508 35.388 24.16 39.152 22.113 36.665"/>
      <polygon class="cls-6" points="21.563 34.111 27.508 35.388 22.113 36.665 21.563 34.111"/>
      <polygon class="cls-6" points="26.616 21.213 23.661 18.259 30.857 15.269 26.616 21.213"/>
      <polyline class="cls-6" points="30.857 15.269 22.218 16.372 30.857 15.269 23.661 18.259 22.218 16.372"/>
      <polygon class="cls-6" points="35.687 34.926 32.582 38.03 30.689 29.397 35.687 34.926"/>
      <polygon class="cls-6" points="30.932 39.42 30.689 29.397 32.582 38.03 30.932 39.42"/>
    </g>
  </g>
  <g>
    <path class="cls-7" d="M48.2,4.7147a8.9213,8.9213,0,1,1-6.3083,2.613A8.863,8.863,0,0,1,48.2,4.7147m0-1a9.9213,9.9213,0,1,0,7.0154,2.9059A9.89,9.89,0,0,0,48.2,3.7147Z"/>
    <g class="cls-8">
      <circle class="cls-9" cx="48.1997" cy="13.636" r="9.9213"/>
    </g>
    <path class="cls-10" d="M53.5022,10.5775a6.1459,6.1459,0,0,0-2.8252-2.54"/>
    <path class="cls-11" d="M48.2,3.7147a9.9213,9.9213,0,1,1-7.0154,2.9059A9.8905,9.8905,0,0,1,48.2,3.7147m0-1a10.9213,10.9213,0,0,0-7.7225,18.6438,10.9213,10.9213,0,0,0,15.445-15.445A10.85,10.85,0,0,0,48.2,2.7147Z"/>
    <path class="cls-12" d="M48.2,2.7147A10.9326,10.9326,0,0,0,42.9248,4.071a.5.5,0,1,0,.4837.8752,9.8556,9.8556,0,0,1,3.6052-1.1613h0l.0154-.0018,0,0,.0232-.0027h0l.0153-.0017,0,0,.0232-.0026h0l.0153-.0017h.0007l.0147-.0016.0009,0,.0074-.0008h0l.0074-.0008,0,0,.0075-.0008h0l.015-.0016.0007,0,.0148-.0015.0008,0,.0073-.0007.0006,0,.0072-.0007h0l.0075-.0008h.0005l.015-.0015.0007,0,.0153-.0015h0l.0157-.0015h0l.0078-.0007h0l.0154-.0015h0l.0152-.0014,0,0,.0075-.0006.0006,0,.0149-.0013.0008,0,.0149-.0013.0007,0,.0151-.0013h0l.0077-.0007h0l.0154-.0013h.0005l.0152-.0013h0l.0155-.0013h0l.0076-.0006h.0006l.015-.0012.0008,0,.0148-.0011.001,0,.0073,0,0,0,.0072,0h0l.0074-.0006h.0009l.0149-.0011.0006,0,.0151-.001.0006,0,.0073,0,.001,0,.0071,0h0l.0075-.0005h.0008l.0149-.0011h.0008l.0152-.001h0l.0077-.0005h0l.0077,0h0l.0075-.0005h.0007l.015-.001h.0008l.0074-.0005h0l.0074,0,0,0,.0074,0,.0009,0,.0147-.0008.0012,0L47.641,3.73l.001,0,.0073,0H47.65l.0068,0h.001l.0072,0h.0009l.0147-.0008.0012,0,.0071,0,.0008,0,.0068,0,.0009,0,.0073,0,.0008,0,.0074,0h0l.0075,0h.001l.0147-.0007.0012,0,.0073,0h0l.0069,0,.0013,0,.007,0h.0012l.0066,0,.0008,0,.0071,0h.0014l.0145-.0006.0011,0,.0073,0h.0006l.0069,0h.001l.007,0h.0015l.0066,0h0l.0072,0h.0013l.0145-.0005.0014,0,.0072,0h.0006l.0069,0h.0009l.0073,0,.0009,0,.0073,0h0l.0073,0,.0012,0,.0073,0h0l.0071,0h.0012l.0071,0,.0012,0,.0064,0H47.92l.007,0h.0016l.0069,0h0l.0069,0h.0019l.0069,0h.0008l.0065,0H47.96l.0069,0h.0015l.0061,0h.0013l.0069,0,.0016,0,.0069,0h0l.0069,0H48l.0067,0,.0016,0,.0058,0h.0016l.0068,0h.0018l.0061,0,.001,0,.007,0H48.04l.0071,0h0l.0071,0h.0015l.0069,0,.0015,0H48.07l.0016,0h.0068l.0017,0h.0072l.0069,0h.0017l.0069,0h.0011l.0062,0h.01l.0066,0h.001l.0069,0h.0176l.0071,0h.0246l.007,0H48.2a.5.5,0,0,0,0-1ZM39.9912,6.7152a.4991.4991,0,0,0-.394.1917,10.9132,10.9132,0,0,0-2.1812,4.9915.5.5,0,0,0,.9872.16,9.8522,9.8522,0,0,1,.3044-1.3176h0l.0291-.094,0,0,.0118-.0372,0,0,.009-.0277,0,0,.009-.0277,0,0,.0029-.0087,0-.0006.0089-.0273,0-.001.009-.0272,0-.0005.0029-.0087,0-.0006.0093-.0274,0,0,.0093-.0273,0-.0007.0029-.0085,0-.0006.0093-.0271,0-.001.0094-.0268,0-.0011.0029-.0082,0-.0007.0063-.018,0-.0007.0029-.0082,0-.001.01-.0267,0-.0013.003-.0083,0,0,.0065-.0181,0-.0007.0029-.0082,0-.0009.01-.0268,0-.0009.0031-.0084,0-.0005.0066-.0178,0-.001.003-.0081,0-.0008.0067-.018,0,0,.0031-.0085,0-.0011.0032-.0085,0,0,.0067-.0179,0-.0009.003-.0082,0-.0007.0068-.0179,0,0,.0032-.0084,0-.0009.01-.0264.0005-.0013.003-.0079,0-.0007.0069-.0178,0-.0006.0031-.0081,0-.0011.01-.0265,0-.0007L38.9658,10l0,0,.0071-.0178,0-.0007.0032-.0081,0-.0009.0071-.0177,0,0,.0033-.0085,0-.0009.0034-.0085,0,0,.0072-.0178,0-.0008.0032-.0081,0-.0008.0072-.0177v0l.0035-.0085,0-.0007.0109-.0264,0-.0008.0034-.0083,0,0,.011-.0266,0-.0005.0111-.0266,0,0,.0151-.0357,0,0,.0114-.0267,0,0,.0153-.0356,0,0,.0116-.0267v0L39.116,9.64l0-.0005.0038-.0085v0l.0117-.0265,0,0a9.9253,9.9253,0,0,1,1.2537-2.0821.5.5,0,0,0-.3944-.8069Zm-1.9078,8.9313a.5006.5006,0,0,0-.4858.62,10.931,10.931,0,0,0,2.59,4.7913.5.5,0,0,0,.7335-.68l-.0023-.0025-.0035-.0037-.0026-.0029-.0032-.0035-.0028-.0029-.0035-.0038-.0023-.0026-.0056-.006-.0021-.0023L40.89,20.344l-.0023-.0025-.0039-.0043-.0021-.0023-.0057-.0063-.0009-.0009-.0049-.0054-.0021-.0023-.0042-.0046-.0017-.0018L40.85,20.3l-.0013-.0014-.0047-.0052-.0017-.0019-.005-.0056-.0008-.0009-.0061-.0067-.001-.0011-.005-.0056-.0015-.0016-.0049-.0055-.0011-.0012-.0121-.0136-.0011-.0012-.0052-.0058-.001-.001-.0123-.0139-.0005-.0006-.0057-.0063-.0007-.0009L40.76,20.2l-.0008-.0009-.0057-.0064,0,0-.0124-.0141-.0006-.0007-.0057-.0065-.0006-.0006-.0124-.0142,0,0-.0058-.0067-.0008-.0009a9.95,9.95,0,0,1-1.1418-1.609v0l-.0192-.0338h0l-.0285-.0509,0,0-.0141-.0254,0,0-.014-.0254,0,0-.0044-.0081,0-.0006-.0137-.0251,0-.0006-.0136-.0252,0,0-.0043-.008,0-.0005-.0092-.017h0l-.0044-.0082,0-.0007-.0134-.025-.0005-.001-.0041-.0077,0,0-.0089-.0169,0-.0005-.0041-.0078,0-.0009-.0088-.0167,0-.0007L39.4,18.2231,39.4,18.2219l-.0042-.008v0l-.0087-.0167-.0007-.0013-.0039-.0075,0-.0007-.0087-.0168,0-.0009-.0038-.0073-.0006-.0013-.0086-.0167,0,0-.0039-.0077-.0006-.0012-.004-.0078,0,0-.0085-.0167-.0007-.0014-.0037-.0073,0-.0009-.0084-.0166-.0007-.0015-.0035-.0068-.0008-.0016-.0082-.0165-.0005-.0011-.0036-.0072-.0008-.0015-.0037-.0074,0-.0008-.0042-.0086h0l-.004-.008-.0008-.0017-.0034-.0068-.0007-.0015-.0081-.0166-.0006-.0012-.0035-.007-.0008-.0017-.0039-.0079v0l-.0041-.0084-.0007-.0013-.0033-.0069-.001-.0019-.0032-.0067-.0007-.0015-.0041-.0084,0,0-.0038-.0079-.0008-.0018-.0032-.0066-.0008-.0017-.008-.0165-.0007-.0015-.0032-.0067-.0009-.002-.0036-.0074,0-.0007-.0039-.0083-.0007-.0015-.0032-.0068-.001-.002-.0031-.0066-.0008-.0017-.0039-.0083,0,0-.0037-.0078-.001-.0022-.003-.0063-.0009-.002-.0076-.0163-.001-.0021-.0028-.006-.0012-.0025-.0031-.0068-.0006-.0013-.0037-.0081-.0009-.0019-.0029-.0063-.0011-.0024-.0029-.0063-.0009-.0019-.0038-.0082,0-.0006-.0034-.0075-.0011-.0023-.0028-.0062-.0009-.0021-.0036-.0078,0,0-.0037-.0082L39.16,17.73l-.0029-.0063-.001-.0023-.0031-.0069-.0006-.0013-.0037-.0082-.0008-.0018-.0029-.0064-.001-.0024-.0029-.0063-.0009-.002-.0036-.0082,0-.0008-.0032-.0072-.0012-.0027-.0026-.0057-.0011-.0026-.0032-.0072,0-.0009-.0036-.0081L39.12,17.64l-.0026-.0061-.0012-.0026-.0028-.0064-.0008-.0017-.0035-.0082-.0008-.0018-.0029-.0065-.0011-.0025-.0025-.0058L39.1,17.5958l-.0035-.008,0-.0012-.0031-.007-.0011-.0025-.0025-.0059-.0011-.0025-.003-.007-.0006-.0012-.0035-.0082L39.08,17.55l-.0026-.006-.0011-.0027-.0027-.0061-.0009-.0022-.0034-.008-.001-.0022-.0025-.006-.0012-.0028-.0025-.006-.001-.0022-.0069-.0165-.0011-.0025-.0025-.0059-.0011-.0026-.003-.0071,0-.001-.0034-.0082L39.042,17.46l-.0024-.0058-.0012-.0028-.0026-.0063-.0008-.0019-.0034-.0081-.0009-.0023-.0025-.006-.0012-.0028-.0023-.0057-.0011-.0027-.0033-.0081-.0005-.001-.0029-.0072-.0012-.0029-.0022-.0055-.0012-.0028-.0026-.0063-.0008-.0021-.0033-.008-.001-.0025-.0023-.0057-.0012-.003-.0024-.0059-.001-.0024-.0032-.008-.001-.0024-.0024-.0059-.0011-.0029-.0023-.0057-.0011-.0028-.0033-.008,0-.0008L38.98,17.308l-.0012-.0031L38.9767,17.3l-.0012-.003L38.973,17.29l-.0007-.002-.0032-.0081-.001-.0024-.0023-.006-.0012-.0029-.0023-.0059-.001-.0024-.0031-.0081-.0009-.0021-.0024-.0062-.0012-.0031-.002-.0052-.0013-.0032-.0026-.0068-.001-.0024-.0027-.0071-.0011-.0028-.0021-.0056-.0012-.003-.0023-.006-.0009-.0024-.0031-.008-.001-.0025L38.93,17.18l-.0012-.003-.0022-.0058-.001-.0026-.0031-.0081-.0007-.0019-.0024-.0064-.0011-.0029-.0022-.0058-.0011-.0028-.0028-.0075,0-.0009-.003-.008-.0011-.0029-.0022-.0057-.001-.0029-.0024-.0064-.0008-.0019-.003-.0081-.001-.0028-.0021-.0056-.0012-.0032-.0022-.0059-.0009-.0024-.003-.0082-.0006-.0017-.0025-.0068-.001-.0027-.0022-.0061-.0009-.0024-.0062-.0169L38.874,17.03l-.0024-.0064-.0008-.0024-.0025-.0067-.0007-.0019-.003-.0084-.0007-.0019-.0023-.0066-.001-.0026-.0023-.0065-.0007-.002-.0031-.0085,0-.0012-.0026-.0072-.0009-.0026-.0022-.0062-.0009-.0025-.0029-.0082,0,0-.003-.0085-.0008-.0024-.0023-.0063-.0008-.0024-.0025-.0072,0-.0014-.003-.0086-.0006-.0015-.0024-.0071L38.8277,16.9l-.0023-.0067-.0006-.0019-.0031-.0087,0,0-.0028-.0082-.0008-.0021-.0022-.0065-.0008-.0024-.0028-.0082,0,0-.003-.0087-.0007-.0019-.0023-.0068-.0007-.0022-.0025-.0074-.0005-.0013-.003-.0088,0-.0009-.0026-.0077-.0007-.0022L38.7935,16.8l-.0007-.0018-.0029-.0088,0,0L38.787,16.78l-.0007-.0023-.0022-.0066-.0007-.0022-.0058-.0174L38.777,16.75l-.0023-.007-.0007-.002-.0025-.0077,0-.001-.0029-.009,0-.0007-.0026-.008-.0007-.002-.0024-.0075,0-.0011-.0058-.018-.0005-.0015-.0024-.0075-.0005-.0016-.0057-.0179,0-.0011-.0025-.0078-.0005-.0015-.0026-.0081,0-.0009-.0057-.018,0-.0013-.0026-.0082,0-.0008-.0057-.0185,0,0-.0027-.0087,0-.0009-.0058-.0184,0,0-.0027-.0088,0-.0009-.0085-.0276,0-.0008-.0027-.0089,0,0-.0057-.0188,0,0-.0026-.0087,0-.0009-.0083-.0279,0,0-.0083-.0282,0,0-.011-.0377,0,0-.0081-.0285h0c-.0319-.1116-.0619-.2244-.09-.3375a.5.5,0,0,0-.4847-.3792Zm5.8614,7.005a.5.5,0,0,0-.2046.9565,10.8393,10.8393,0,0,0,4.4595.9493c.3029,0,.6088-.0126.9093-.0374a.5.5,0,0,0-.0406-.9983c-.0138,0-.0277,0-.0417.0017h-.0006l-.0011,0-.0059.0005-.0027,0-.0044,0-.0034,0-.0033,0-.004,0-.0015,0-.0112.0009h0l-.0057,0-.001,0-.0057,0-.0009,0q-.2558.02-.515.0265h0l-.0321.0008h-.0007l-.006,0h-.0006l-.0245.0006h-.0016l-.0053,0h-.0018l-.0051,0h-.0014l-.0118,0h0l-.0049,0-.0024,0h-.0043l-.0031,0H48.35l-.0032,0h-.0041l-.0021,0-.0083,0h-.0034l-.0039,0h-.0033l-.0039,0H48.311l-.0059,0h-.0028l-.0055,0h-.0031l-.0043,0h-.0105l-.0056,0h-.0017l-.0071,0h-.0152l-.0025,0h-.0323l-.0053,0h-.02l-.0056,0h-.0284l-.0046,0h-.0118l-.0047,0h-.0121l-.0043,0H48.109l-.0038,0h-.0045l-.0038,0h-.0082l-.0046,0h-.0036l-.0048,0h-.0034l-.0048,0H48.064l-.0051,0-.003,0H48.05l-.0025,0-.0164,0-.0027,0-.0056,0H48.02l-.0053,0-.0031,0-.0052,0h-.0033l-.0048,0-.0036,0-.0046,0-.0037,0-.0046,0-.0035,0-.0048,0H47.97l-.0046,0h-.0036l-.0047,0-.0035,0-.0048,0h-.0034l-.0048,0h-.0035l-.0046,0-.0036,0-.0048,0-.0033,0-.0051,0-.0031,0-.0052,0-.0031,0-.0053,0-.0029,0-.0065,0h-.0017l-.0083,0h0l-.0078,0-.0027,0-.0055,0-.0032,0-.005,0-.003,0-.0053,0-.003,0-.0052,0-.0031,0-.005,0-.0033,0-.005,0-.003,0-.0053,0-.003,0-.0051,0-.0032,0-.0049,0-.0034,0-.0049,0-.0032,0-.0051,0-.0031,0-.0052,0-.0029,0-.0055,0-.0027,0-.0061,0-.002,0-.0064,0-.0019,0-.0069,0h-.0013l-.0247-.0012-.0015,0-.0068,0-.0017,0-.0064,0-.0023,0-.006,0-.0023,0-.0057,0-.0028,0-.0054,0-.003,0-.005,0-.0033,0-.005,0-.0031,0-.0051,0-.003,0-.0053,0-.0029,0-.0053,0-.0028,0-.0056,0-.0026,0-.0056,0-.0025,0-.0059,0-.0023,0-.0062,0-.0019,0-.0073,0-.0008,0-.0332-.002h0l-.0078,0-.0016,0-.0065,0-.002,0-.0062,0-.0022,0-.006,0-.002,0-.0062,0-.0022,0-.006,0-.0021,0-.0061-.0005-.0022,0-.006,0-.002,0-.0062,0-.0021,0-.0063,0-.0018,0-.0064,0-.0018,0-.0067-.0005-.0014,0-.0074,0-.0007,0-.05-.0038h0l-.0082-.0007h0l-.0078-.0006-.001,0-.0071-.0006-.0014,0-.0067-.0006-.0017,0-.0065-.0006-.0016,0-.0066-.0006-.0016,0-.0067-.0006-.0015,0-.0066-.0006-.0016,0-.0068-.0006-.0012,0-.0073-.0007H47.313l-.0077-.0007h0l-.008-.0008h0l-.0824-.0078h0l-.0081-.0008h0l-.0078-.0008h-.0006l-.0078-.0008h0l-.0081-.0009h0l-.0081-.0008h0l-.0082-.0009h0a9.8563,9.8563,0,0,1-3.0175-.8093.4988.4988,0,0,0-.2025-.0431ZM56.916,18.8508a.4994.4994,0,0,0-.4183.2255q-.232.3533-.4928.6849v0l-.0369.0466,0,0-.0369.0462,0,0-.0232.0287,0,0-.0183.0226-.0006.0007-.0182.0222-.0008.0009-.0042.0052,0,.0005-.0134.0163-.0008.0009-.0043.0052-.0006.0007-.0134.0161-.0007.0009-.0042.005-.0008.0011-.0136.0162,0,0-.0043.0051-.0009.0011-.0181.0215-.001.0013-.0043.005,0,0-.0134.0159-.0011.0013-.0042.0049-.0008.001-.0134.0157-.0007.0009-.0043.005-.0009.001-.0132.0155-.001.0011-.004.0047-.0013.0015-.0041.0048,0,0-.0086.01-.0013.0016-.0037.0043-.0018.0021-.0037.0041L55.7,20.13l-.008.0093-.0005,0-.0039.0045-.0016.0019-.0038.0043-.0016.0019-.0124.0142-.0018.002-.0035.0041-.002.0022-.0123.014-.0016.0018-.0037.0042-.002.0023-.0035.004-.0016.0017-.0068.0077-.0021.0025-.0033.0036-.0025.0029-.0032.0036-.0025.0028-.0057.0064-.0025.0027-.0032.0037-.0026.0028-.0032.0036-.0024.0027-.0058.0065-.0025.0028-.003.0034-.0028.0031-.0031.0034-.0027.003-.003.0034-.0051.0056-.003.0033-.0029.0033-.0029.0032-.003.0032-.0029.0032L55.55,20.3l-.0037.0041-.0031.0034-.003.0033-.0028.0031-.003.0032-.0034.0037-.0043.0048-.0035.0038-.0027.003-.0031.0033-.0028.0032-.0034.0036-.0039.0042-.004.0044-.0027.0029-.0032.0035-.0028.003-.0033.0036-.0026.0028-.0054.0059-.0025.0027-.0034.0037-.0027.0029-.0035.0037-.0025.0027-.0055.006-.0021.0022-.0038.0041-.0026.0028-.0035.0037-.0026.0028-.005.0054-.0027.0028-.0036.0039-.0029.003-.0032.0035-.0027.0028-.0045.0048-.0021.0022-.0049.0053-.0025.0026-.0036.0038-.0026.0028-.0042.0043-.0017.0018-.0058.0061-.0021.0023-.004.0043-.0023.0023-.0042.0045-.0019.0019-.0058.0061-.0019.002-.0042.0044-.0024.0025-.004.0041-.002.0022-.0058.006-.0018.0019-.0044.0046-.0022.0022-.0041.0043-.0021.0022-.0055.0057-.0015.0015-.005.0052-.0023.0024-.004.0041-.0021.0022-.005.0051-.0012.0013-.006.0061-.0018.0019-.0045.0046-.002.002-.005.0052-.0012.0011-.0061.0063-.0016.0017-.0047.0047-.0019.0019-.0048.0049-.0015.0016-.0062.0063-.0009.0009-.0055.0055-.0015.0016-.0051.0051-.0014.0014-.0063.0065,0,0-.0062.0062-.0013.0013-.0052.0052-.0015.0015-.0127.0127-.0014.0014-.0052.0052-.0014.0014-.0061.0061,0,0-.0066.0067-.0008.0007-.0057.0057-.0013.0013-.0059.0058-.0005,0-.0067.0067,0,0-.0061.006-.0012.0011-.0056.0056-.001.0009-.0131.013-.0011.001-.0057.0056-.001.001-.0133.013-.0008.0008-.0058.0056-.0011.0011-.0132.0129-.001.0009-.0057.0055-.0011.0012-.0062.0059,0,0-.0069.0067h0l-.0064.0062-.0012.0011-.0061.0059,0,0-.0135.013-.0009.0008-.0061.0059-.0007.0007-.0137.013-.0005,0-.0064.006-.0006.0006-.0137.013-.0006.0006-.0062.0058-.0009.0009-.0136.0128,0,.0005-.0062.0058-.001.001-.0066.0062h0l-.0138.013-.0008.0007-.0067.0062v0l-.0141.013-.0005,0-.0065.006-.0005,0-.014.013,0,0-.0067.0062,0,0-.0211.0194-.0005,0-.0212.0193,0,0-.0214.0194,0,0-.0287.0259,0,0c-.0387.0348-.0774.069-.1167.1032l0,0a9.9467,9.9467,0,0,1-1.8668,1.2816.5.5,0,0,0,.4687.8834,10.9878,10.9878,0,0,0,4.0257-3.6659.5.5,0,0,0-.4175-.7746Zm1.1563-9.06a.5.5,0,0,0-.4736.6606,9.8689,9.8689,0,0,1,.471,2.1705h0q.01.1015.0186.2038v0l.0025.0312v0l.0024.0311v.0005l.0006.0073v0l.0017.0231V12.92l0,.0069,0,.0009.0005.0073v0l.0011.0156v.0006l0,.0071,0,.0007,0,.0072,0,0,.0015.0232v.0009l.0005.0066v.0012l.0015.0229v.0009l0,.0066,0,.0014,0,.0071v0l.001.0156v.0007l0,.0066,0,.0016,0,.0063,0,.0012.0008.0154,0,0,0,.007,0,.0016,0,.0061v.0015l0,.0066V13.11l.0008.015,0,.0018,0,.0058,0,.0018,0,.0061v.0014l.0008.0151v.0014l0,.0061,0,.0017,0,.006,0,.0017,0,.0069v.0005l0,.0075,0,.0013,0,.0062v.0019l0,.0057,0,.0019,0,.0065,0,.0008.0006.0152,0,.0016,0,.0059,0,.0019,0,.0059,0,.0016.0005.015,0,.0017,0,.0057,0,.0021,0,.0057,0,.0018,0,.0066v.0009l0,.0076v.0008l0,.0066,0,.0019,0,.0057,0,.0019,0,.006,0,.0015,0,.015v.0019l0,.0056v.0022l0,.0054,0,.0021,0,.0072v0l0,.0075v.0019l0,.0055v.0024l0,.0051v.0025l0,.0055v.0018l0,.0073v.0019l0,.0055v.0026l0,.0048,0,.0028,0,.0052v.002l0,.0149,0,.0022,0,.0051v.0027l0,.005,0,.0023,0,.0064v.001l0,.0074,0,.0021,0,.0053v.0025l0,.0052v.0022l0,.0058v.0017l0,.0074v.0017l0,.0056,0,.0027v.0075l0,.005v.0024l0,.0146v.0075l0,.0027v.0074l0,.0063v.0084l0,.0025v.0151l0,.0055v.0416h0v.0409l0,.0056v.01l0,.0069V13.71l0,.0048v.0077l0,.0029v.0075l0,.0061V13.74l0,.0077v.0009l0,.0066v.0026l0,.005v.0028l0,.0048v.0028l0,.005v.0026l0,.0056v.0019l0,.007v.0006l0,.0078v.001l0,.0065v.0023l0,.0053,0,.0025,0,.0051v.0026l0,.0053,0,.0023,0,.0059v.0016l0,.0155,0,.0007,0,.0069v.0017l0,.0059v.0021l0,.0057v.0019l0,.0059v.0019l0,.007v0l0,.0158v0l0,.0073,0,.0015,0,.0063v.0014l0,.0065V13.94l0,.007v.0007l-.001.0314V13.98l0,.0071v.001l0,.0071,0,.0006,0,.0077h0l-.0013.0318h0l0,.0079v0a9.9549,9.9549,0,0,1-.1455,1.3419.5.5,0,1,0,.9845.1751,11.015,11.015,0,0,0,.1692-1.9245,10.9037,10.9037,0,0,0-.5751-3.5057.5.5,0,0,0-.4735-.34ZM51.647,3.2984a.5.5,0,0,0-.1657.9719q.2246.0788.4441.1678l0,0,.0272.0111h0l.0273.0112,0,0,.009.0037h0l.0271.0113,0,0,.0269.0112,0,0,.0267.0113.0007,0,.0086.0036,0,0,.0179.0076.0006,0,.0082.0036.0008,0,.0177.0076,0,0,.0083.0036.0009,0,.0177.0077h0l.0085.0037.0011,0,.0083.0036,0,0,.0175.0077.0011,0,.0076.0033.0011,0,.0171.0076.0015.0006.0073.0032.0013.0006.0172.0077.0009,0,.0075.0033.0016.0008.0079.0035,0,0,.0088.004,0,0,.0079.0036L52.28,4.59l.0074.0033.0012.0006.0168.0076.0017.0008.007.0032.0015.0007.0168.0076.0016.0008.0068.0031.002.0009.0073.0034.0009,0,.0082.0038.0018.0008.0066.0031.0021.0009.0069.0032.0013.0006.0084.004.0006,0,.0076.0035.002.0009.0066.0031.0018.0008.0083.0039h0l.0081.0039.0021.0009.0061.0029.0024.0011.0075.0036.0005,0,.0083.0039.0018.0009.0063.003.0024.0011.0063.0031.0019.0008.0081.0039.0015.0007.0064.0031.0027.0013.0058.0028.0023.0011.008.0038.0012.0006.0067.0033.0027.0013.0055.0026.0028.0014.0071.0034.0009,0,.0075.0036.003.0015.0052.0025.003.0015.0059.0028.002.001.0077.0038.0027.0013.0052.0026.0033.0016.0049.0024.003.0015.0074.0037.003.0014.0049.0025.0035.0017.0045.0022.0034.0017.006.003.0043.0022.0047.0023.004.002.0038.0019.004.002.004.002.0067.0034.004.002.0041.002.0037.0019.004.002.0043.0022.0035.0017.007.0036.0039.0019.0039.002.0039.002.004.002.0039.002.0056.0029.0052.0026.0037.0019.0041.0021.0039.002.0039.002.0041.0021.0066.0034.0039.002.0041.0022.0036.0018.0043.0022.0033.0017.008.0042.003.0015.0044.0023.0033.0017.0045.0023.0028.0015.016.0084.0029.0015.0046.0024.003.0016.0046.0024.0023.0012.0089.0047.003.0016.0045.0024.0029.0015.0048.0025.0023.0013.01.0051.0019.001.0049.0026.0026.0014.0048.0026.0025.0013.0114.0061h0l.005.0027.0024.0013.005.0027.0024.0012.0169.0091.0018.001.0052.0028.0021.0012.0054.0029.0005,0,.0115.0063.0015.0008.0052.0028.0022.0012.0052.0029.0014.0008.0178.01.0014.0008.0057.0031.0011.0006.0183.01.0009.0005.0058.0032.0011.0006.0187.01,0,0,.0059.0033.0012.0007.0252.0141.0005,0,.0257.0145,0,0,.0063.0036,0,0,.0256.0145,0,0,.0256.0146.0005,0A9.9682,9.9682,0,0,1,55.594,7.021a.5.5,0,1,0,.745-.667,10.9584,10.9584,0,0,0-4.5267-3.0273.4984.4984,0,0,0-.1653-.0283Z"/>
  </g>
  <circle class="cls-13" cx="71.1727" cy="4.9632" r="4.4043"/>
  <circle class="cls-14" cx="4.842" cy="4.9632" r="4.4043"/>
  <circle class="cls-13" cx="71.1727" cy="42.664" r="4.4043"/>
  <circle class="cls-13" cx="4.8428" cy="42.6639" r="4.4043"/>
  <g>
    <line class="cls-15" x1="4.1717" y1="6.3785" x2="7.0022" y2="3.548"/>
    <line class="cls-15" x1="2.6817" y1="4.8885" x2="4.1717" y2="6.3785"/>
  </g>
  <g>
    <line class="cls-15" x1="70.5033" y1="6.3785" x2="73.3337" y2="3.548"/>
    <line class="cls-15" x1="69.0133" y1="4.8885" x2="70.5033" y2="6.3785"/>
  </g>
  <g>
    <line class="cls-15" x1="70.5016" y1="44.0794" x2="73.332" y2="41.249"/>
    <line class="cls-15" x1="69.0116" y1="42.5894" x2="70.5016" y2="44.0794"/>
  </g>
  <g>
    <line class="cls-15" x1="4.1717" y1="44.0794" x2="7.0022" y2="41.249"/>
    <line class="cls-15" x1="2.6817" y1="42.5894" x2="4.1717" y2="44.0794"/>
  </g>
  <g>
    <line class="cls-16" x1="3.4268" y1="6.3784" x2="6.2572" y2="3.548"/>
    <line class="cls-16" x1="3.4268" y1="3.548" x2="6.2572" y2="6.3784"/>
  </g>
  <g>
    <line class="cls-16" x1="69.7575" y1="6.3784" x2="72.5879" y2="3.548"/>
    <line class="cls-16" x1="69.7575" y1="3.548" x2="72.5879" y2="6.3784"/>
  </g>
  <g>
    <line class="cls-16" x1="69.7575" y1="44.0792" x2="72.5879" y2="41.2488"/>
    <line class="cls-16" x1="69.7575" y1="41.2488" x2="72.5879" y2="44.0792"/>
  </g>
  <g>
    <line class="cls-16" x1="3.4268" y1="44.0792" x2="6.2572" y2="41.2488"/>
    <line class="cls-16" x1="3.4268" y1="41.2488" x2="6.2572" y2="44.0792"/>
  </g>
  <line class="cls-15" x1="10.2447" y1="7.0029" x2="18.5341" y2="10.1323"/>
  <line class="cls-16" x1="65.7699" y1="7.0029" x2="57.4805" y2="10.1323"/>
  <line class="cls-16" x1="65.7699" y1="40.6244" x2="57.4805" y2="37.4949"/>
  <line class="cls-16" x1="10.2447" y1="40.6244" x2="18.5341" y2="37.4949"/>
  <line class="cls-16" x1="65.7699" y1="40.6244" x2="57.4805" y2="37.4949"/>
  <line class="cls-16" x1="65.7699" y1="7.0029" x2="57.4805" y2="10.1323"/>
</svg>
