<svg xmlns="http://www.w3.org/2000/svg" xmlns:xlink="http://www.w3.org/1999/xlink" viewBox="0 0 76.0146 47.6272">
  <defs>
    <style>
      .cls-1, .cls-10, .cls-13, .cls-15, .cls-16, .cls-18, .cls-2, .cls-20, .cls-21, .cls-22, .cls-23, .cls-25, .cls-26, .cls-27, .cls-28, .cls-29, .cls-3, .cls-30, .cls-31, .cls-4, .cls-5, .cls-8 {
        fill: none;
      }

      .cls-2 {
        stroke: #ff3939;
      }

      .cls-10, .cls-15, .cls-18, .cls-2, .cls-20, .cls-21, .cls-22, .cls-23, .cls-28, .cls-29, .cls-3, .cls-4, .cls-5, .cls-8 {
        stroke-linecap: round;
      }

      .cls-10, .cls-15, .cls-16, .cls-18, .cls-2, .cls-20, .cls-21, .cls-22, .cls-23, .cls-24, .cls-25, .cls-26, .cls-27, .cls-28, .cls-29, .cls-3, .cls-30, .cls-31, .cls-4, .cls-5, .cls-8 {
        stroke-miterlimit: 10;
      }

      .cls-10, .cls-13, .cls-15, .cls-2, .cls-21, .cls-4, .cls-8 {
        stroke-width: 0.75px;
      }

      .cls-23, .cls-3 {
        stroke: #b3b3b3;
        stroke-width: 2px;
      }

      .cls-3 {
        opacity: 0.6;
      }

      .cls-30, .cls-31, .cls-4 {
        stroke: #f78739;
      }

      .cls-16, .cls-24, .cls-5, .cls-8 {
        stroke: #666;
      }

      .cls-5 {
        stroke-width: 6px;
      }

      .cls-11, .cls-6 {
        fill: #333;
      }

      .cls-7 {
        fill: #4d4d4d;
      }

      .cls-9 {
        fill: url(#primary_gradient);
      }

      .cls-10, .cls-15, .cls-28 {
        stroke: #f2f2f2;
      }

      .cls-10 {
        opacity: 0.5;
      }

      .cls-11, .cls-12 {
        opacity: 0.2;
      }

      .cls-13 {
        stroke: #ccc;
        stroke-linejoin: round;
      }

      .cls-14 {
        fill: #666;
      }

      .cls-16 {
        stroke-width: 4px;
      }

      .cls-17 {
        clip-path: url(#clip-path);
      }

      .cls-18, .cls-29 {
        stroke: #4d4d4d;
      }

      .cls-18, .cls-20 {
        stroke-width: 4.25px;
      }

      .cls-19 {
        opacity: 0.7;
      }

      .cls-20, .cls-26, .cls-27 {
        stroke: #f73c39;
      }

      .cls-21 {
        stroke: url(#primary_gradient-2);
      }

      .cls-22 {
        stroke: gray;
      }

      .cls-24 {
        fill: #e6e6e6;
        stroke-width: 1.5px;
      }

      .cls-25 {
        stroke: #333;
      }

      .cls-25, .cls-26, .cls-27, .cls-30, .cls-31 {
        stroke-width: 2.5px;
      }

      .cls-27, .cls-31 {
        opacity: 0.85;
      }
    </style>
    <linearGradient id="primary_gradient" data-name="primary gradient" x1="19.2495" y1="31.3694" x2="56.7651" y2="31.3694" gradientUnits="userSpaceOnUse">
      <stop offset="0.2367" stop-color="#f78739"/>
      <stop offset="0.5058" stop-color="#f76539"/>
      <stop offset="0.7843" stop-color="#f74739"/>
      <stop offset="0.9428" stop-color="#f73c39"/>
    </linearGradient>
    <clipPath id="clip-path">
      <rect class="cls-1" x="22.7495" y="18.6194" width="30.5156" height="20.5"/>
    </clipPath>
    <linearGradient id="primary_gradient-2" x1="32.1676" y1="28.8694" x2="43.8471" y2="28.8694" xlink:href="#primary_gradient"/>
  </defs>
  <g id="Layer_2" data-name="Layer 2">
    <g>
      <path class="cls-2" d="M10.5372,1.4347h10.63a4.8319,4.8319,0,0,1,4.8346,4.8346V15.665"/>
      <path class="cls-3" d="M10.5372,1.4347h10.63a4.8319,4.8319,0,0,1,4.8346,4.8346V15.665"/>
    </g>
    <g>
      <path class="cls-4" d="M65.4719,1.4347H54.842a4.8319,4.8319,0,0,0-4.8347,4.8346V15.665"/>
      <path class="cls-3" d="M65.4719,1.4347H54.842a4.8319,4.8319,0,0,0-4.8347,4.8346V15.665"/>
    </g>
    <line class="cls-5" x1="10.3695" y1="9.6404" x2="21.3925" y2="20.6634"/>
    <line class="cls-5" x1="65.6451" y1="9.6404" x2="54.6221" y2="20.6634"/>
    <circle class="cls-6" cx="65.6451" cy="9.6404" r="1.4173"/>
    <circle class="cls-6" cx="10.3695" cy="9.6404" r="1.4173"/>
    <g>
      <rect class="cls-6" x="38.0073" y="18.6194" width="15.2578" height="20.5"/>
      <rect class="cls-7" x="22.7495" y="18.6194" width="15.2522" height="20.5"/>
    </g>
    <path class="cls-6" d="M41.2259,17.9252H34.7888V13.6717a.85.85,0,0,1,.85-.85h4.7364a.85.85,0,0,1,.85.85Z"/>
    <path class="cls-7" d="M38.0073,17.9252H34.7888V13.6717a.85.85,0,0,1,.85-.85h2.3682Z"/>
    <line class="cls-8" x1="36.1126" y1="13.9884" x2="39.9021" y2="13.9884"/>
    <path class="cls-9" d="M51.8045,15.1116H24.21A4.9607,4.9607,0,0,0,19.25,20.0722v24.72a2.8346,2.8346,0,0,0,2.8347,2.8346H53.9305a2.8346,2.8346,0,0,0,2.8346-2.8346v-24.72A4.9606,4.9606,0,0,0,51.8045,15.1116ZM22.75,37.6943v-17.65a1.4252,1.4252,0,0,1,1.4251-1.4251H51.84a1.4251,1.4251,0,0,1,1.4251,1.4251v17.65A1.4251,1.4251,0,0,1,51.84,39.1194H24.1746A1.4251,1.4251,0,0,1,22.75,37.6943Z"/>
    <path class="cls-10" d="M20.7214,19.2077a3.5547,3.5547,0,0,1,2.7323-2.6423"/>
    <g>
      <rect class="cls-11" x="29.6464" y="40.4847" width="16.7218" height="5.6846" rx="0.807"/>
      <g>
        <rect class="cls-6" x="29.6464" y="40.4849" width="9.7055" height="5.6842" rx="0.8504"/>
        <g class="cls-12">
          <line class="cls-13" x1="38.9742" y1="41.8583" x2="35.1073" y2="45.8337"/>
        </g>
        <path class="cls-14" d="M38.5015,41.2349a.1005.1005,0,0,1,.1.1v3.9834a.1005.1005,0,0,1-.1.1H30.4968a.1.1,0,0,1-.1-.1V41.3353a.1.1,0,0,1,.1-.1h8.0047m0-.75H30.4968a.85.85,0,0,0-.85.85v3.9834a.85.85,0,0,0,.85.85h8.0047a.85.85,0,0,0,.85-.85V41.3353a.85.85,0,0,0-.85-.85Z"/>
      </g>
      <g>
        <circle class="cls-6" cx="42.7725" cy="43.3268" r="1.751"/>
        <path class="cls-14" d="M42.7726,41.951a1.376,1.376,0,1,1-1.3759,1.376,1.3775,1.3775,0,0,1,1.3759-1.376m0-.75a2.126,2.126,0,1,0,2.126,2.126,2.126,2.126,0,0,0-2.126-2.126Z"/>
      </g>
      <g>
        <line class="cls-15" x1="34.4991" y1="44.2428" x2="34.4991" y2="42.4112"/>
        <line class="cls-15" x1="35.3083" y1="43.0525" x2="34.4991" y2="42.4112"/>
        <line class="cls-15" x1="33.69" y1="43.0525" x2="34.4991" y2="42.4112"/>
      </g>
    </g>
    <line class="cls-16" x1="38.0073" y1="18.6194" x2="38.0073" y2="39.1194"/>
    <g class="cls-17">
      <g>
        <g>
          <g>
            <line class="cls-18" x1="34.4849" y1="32.3919" x2="41.5298" y2="25.347"/>
            <line class="cls-18" x1="41.5298" y1="32.3919" x2="34.4849" y2="25.347"/>
          </g>
          <g class="cls-19">
            <line class="cls-20" x1="34.4849" y1="32.3919" x2="41.5298" y2="25.347"/>
            <line class="cls-20" x1="41.5298" y1="32.3919" x2="34.4849" y2="25.347"/>
          </g>
          <path class="cls-21" d="M35.1792,28.8694h5.6563m-6.6563,1h7.6563m-8.6563,1h9.6563m-10.2814,1H43.4605m-4.2813,1h4.2929m-10.9295,0h4.2929m3.3469,1h2.6948m-9.74,0h2.6948m-1.6531-6h7.6563m-8.6563-1h9.6563m-10.2814-1H43.4605m-4.2813-1h4.2929m-10.9295,0h4.2929m3.3466-1h2.6952m-9.74,0h2.6952"/>
        </g>
        <g>
          <line class="cls-22" x1="31.5863" y1="36.3627" x2="44.4284" y2="36.3627"/>
          <line class="cls-23" x1="28.3336" y1="35.2986" x2="47.681" y2="35.2986"/>
        </g>
      </g>
    </g>
    <g class="cls-12">
      <path class="cls-24" d="M42.7726,18.6194H24.1668A1.4174,1.4174,0,0,0,22.75,20.0367V37.7021a1.4173,1.4173,0,0,0,1.4173,1.4173h27.681a1.4172,1.4172,0,0,0,1.4173-1.4173V20.0367a1.4173,1.4173,0,0,0-1.4173-1.4173Z"/>
      <path class="cls-24" d="M42.7726,18.6194H24.1668A1.4174,1.4174,0,0,0,22.75,20.0367V37.7021a1.4173,1.4173,0,0,0,1.4173,1.4173h27.681a1.4172,1.4172,0,0,0,1.4173-1.4173V20.0367a1.4173,1.4173,0,0,0-1.4173-1.4173Z"/>
      <polygon class="cls-14" points="38.15 38.619 40.968 38.619 52.765 26.733 52.765 23.894 38.15 38.619"/>
    </g>
    <g>
      <path class="cls-7" d="M74.7283,8.0776a9.2167,9.2167,0,1,0-10.6459,10.646A9.22,9.22,0,0,0,74.7283,8.0776Zm-9.0832,4.2557A2.6929,2.6929,0,1,1,68.338,9.64,2.693,2.693,0,0,1,65.6451,12.3333Z"/>
      <path class="cls-6" d="M65.6451,4.68A4.9606,4.9606,0,1,0,70.6057,9.64,4.9606,4.9606,0,0,0,65.6451,4.68Zm0,7.6535A2.6929,2.6929,0,1,1,68.338,9.64,2.693,2.693,0,0,1,65.6451,12.3333Z"/>
      <circle class="cls-25" cx="65.6451" cy="9.6404" r="7.0866"/>
      <path class="cls-26" d="M65.6451,16.727a7.0866,7.0866,0,1,1,0-14.1732"/>
      <path class="cls-27" d="M65.6451,2.5538a7.0866,7.0866,0,1,1,0,14.1732"/>
      <path class="cls-28" d="M62.1012,3.5022a7.0955,7.0955,0,0,1,7.0878,0"/>
      <path class="cls-28" d="M62.1012,15.7786a7.0955,7.0955,0,0,0,7.0878,0"/>
      <line class="cls-29" x1="65.6451" y1="6.4371" x2="65.6451" y2="4.6798"/>
      <line class="cls-29" x1="65.6451" y1="12.8437" x2="65.6451" y2="14.601"/>
      <line class="cls-29" x1="62.871" y1="11.242" x2="61.3486" y2="12.121"/>
      <line class="cls-29" x1="68.4192" y1="8.0387" x2="69.9417" y2="7.1597"/>
      <line class="cls-29" x1="68.4192" y1="11.242" x2="69.9416" y2="12.121"/>
      <line class="cls-29" x1="62.871" y1="8.0387" x2="61.3484" y2="7.1597"/>
    </g>
    <g>
      <path class="cls-7" d="M19.4527,8.0776A9.2167,9.2167,0,1,0,8.8068,18.7236,9.22,9.22,0,0,0,19.4527,8.0776ZM10.37,12.3333A2.6929,2.6929,0,1,1,13.0624,9.64,2.6929,2.6929,0,0,1,10.37,12.3333Z"/>
      <path class="cls-6" d="M10.37,4.68A4.9606,4.9606,0,1,0,15.33,9.64,4.9606,4.9606,0,0,0,10.37,4.68Zm0,7.6535A2.6929,2.6929,0,1,1,13.0624,9.64,2.6929,2.6929,0,0,1,10.37,12.3333Z"/>
      <circle class="cls-25" cx="10.3695" cy="9.6404" r="7.0866"/>
      <path class="cls-30" d="M10.37,16.727a7.0866,7.0866,0,0,1,0-14.1732"/>
      <path class="cls-31" d="M10.37,2.5538a7.0866,7.0866,0,0,1,0,14.1732"/>
      <path class="cls-28" d="M6.8256,3.5022a7.0955,7.0955,0,0,1,7.0878,0"/>
      <path class="cls-28" d="M6.8256,15.7786a7.0955,7.0955,0,0,0,7.0878,0"/>
      <line class="cls-29" x1="10.3695" y1="6.4371" x2="10.3695" y2="4.6798"/>
      <line class="cls-29" x1="10.3695" y1="12.8437" x2="10.3695" y2="14.601"/>
      <line class="cls-29" x1="7.5954" y1="11.242" x2="6.073" y2="12.121"/>
      <line class="cls-29" x1="13.1436" y1="8.0387" x2="14.6662" y2="7.1597"/>
      <line class="cls-29" x1="13.1436" y1="11.242" x2="14.666" y2="12.121"/>
      <line class="cls-29" x1="7.5954" y1="8.0387" x2="6.0728" y2="7.1597"/>
    </g>
  </g>
</svg>
